<svg role="img" aria-labelledby="cv-spm-01_title" id="Layer_1" data-name="Layer 1" xmlns="http://www.w3.org/2000/svg" viewBox="0 0 64 88">
	<title id="cv-spm-01_title">Mobiltelefon</title>
	<defs>
		<style>
			.cls-1{fill:#627382;}.cls-2{fill:#fff;}.cls-3{fill:#e7e9e9;}.cls-4{fill:#8e9294;}.cls-5{fill:#cde7d8;stroke:#9bd0b0;stroke-width:0.18px;}.cls-5,.cls-6{stroke-miterlimit:10;}.cls-6,.cls-8{fill:none;stroke-linecap:round;}.cls-6{stroke:#8e9294;stroke-width:2.25px;}.cls-7{fill:#9bd0b0;}.cls-8{stroke:#3e3832;stroke-linejoin:round;stroke-width:0.65px;}
		</style>
	</defs>
	<rect class="cls-1" x="4.74" y="2.15" width="48.17" height="84.11" rx="4.45" ry="4.45"/>
	<rect class="cls-2" x="8.44" y="11.69" width="41.13" height="62.25"/>
	<rect class="cls-3" x="8.44" y="11.79" width="41.13" height="4.45"/>
	<circle class="cls-4" cx="42.8" cy="67.3" r="1.49"/>
	<circle class="cls-4" cx="37.54" cy="67.3" r="1.49"/>
	<circle class="cls-4" cx="32.42" cy="67.3" r="1.49"/>
	<path class="cls-5"
		  d="M56.13,56.29h-13l-4,4.88a.58.58,0,0,1-.78,0l-4-4.88H21.6a3.07,3.07,0,0,1-3.07-3.08V30a3.07,3.07,0,0,1,3.07-3.07H56.13A3.07,3.07,0,0,1,59.19,30v23.2A3.07,3.07,0,0,1,56.13,56.29Z"/>
	<line class="cls-6" x1="25.74" y1="36.83" x2="38.38" y2="36.83"/>
	<line class="cls-6" x1="25.74" y1="42.49" x2="51.99" y2="42.49"/>
	<line class="cls-6" x1="25.74" y1="48.15" x2="51.99" y2="48.15"/>
	<circle class="cls-7" cx="54.92" cy="24.11" r="6.32"/>
	<polyline class="cls-8" points="51.9 24.32 53.69 25.97 57.94 22.25"/>
</svg>
