<svg role="img" aria-labelled-by="cv-spm-04_title" id="Layer_1" data-name="Layer 1" xmlns="http://www.w3.org/2000/svg" viewBox="0 0 64 88">
	<title id="cv-spm-04_title">Mobiltelefon som vibrerer</title>
	<defs>
		<style>
			.cls-1{fill:#627382;}.cls-2{fill:#fff;}.cls-3{fill:#e0f5fb;}.cls-4{fill:none;stroke:#627382;stroke-linecap:round;stroke-linejoin:round;stroke-width:1.5px;}
		</style>
	</defs>
	<rect class="cls-1" x="10.48" y="6.43" width="43.04" height="75.15" rx="8.19" ry="8.19" transform="translate(-12.59 12.82) rotate(-19.01)"/>
	<rect class="cls-2" x="13.41" y="15.04" width="36.75" height="55.62" transform="translate(-12.23 12.69) rotate(-19.01)"/>
	<rect class="cls-3" x="13.27" y="14.41" width="36.75" height="56.1" transform="translate(-12.1 12.63) rotate(-19.01)"/>
	<path class="cls-4" d="M53.31,24a18.57,18.57,0,0,1,6.87,20"/>
	<path class="cls-4" d="M52.89,29.05a10,10,0,0,1,2.67,3.26,14.69,14.69,0,0,1,.76,1.86,15.16,15.16,0,0,1,.56,2,9.63,9.63,0,0,1-.16,4.18"/>
	<path class="cls-4" d="M3.43,40.82A18.6,18.6,0,0,0,10.12,60.9"/>
	<path class="cls-4" d="M6.86,44.6a10.1,10.1,0,0,0-.15,4.22,16.35,16.35,0,0,0,.53,1.94A15.38,15.38,0,0,0,8,52.65a9.49,9.49,0,0,0,2.67,3.23"/>
</svg>
