<svg role="img" aria-labelledby="cv-spm-03_title" id="Layer_1" data-name="Layer 1" xmlns="http://www.w3.org/2000/svg" viewBox="0 0 64 88">
	<title id="cv-spm-03_title">Papirdokument med blyant</title>
	<defs>
		<style>
			.cls-1{fill:#e4e3da;}.cls-2{fill:#babbbb;}.cls-3,.cls-4{fill:none;stroke:#8e9294;stroke-linecap:round;stroke-miterlimit:10;}.cls-3{stroke-width:3.15px;}.cls-4{stroke-width:3.31px;}.cls-5{fill:#c42b34;}.cls-6{fill:#e1cfb4;}.cls-7{fill:#e8c163;}.cls-8{fill:#d9b15b;}.cls-9{fill:#535756;}
		</style>
	</defs>
	<path class="cls-1" d="M2.58,24V83.18A3.82,3.82,0,0,0,6.41,87H57.6a3.82,3.82,0,0,0,3.82-3.82v-68a3.82,3.82,0,0,0-3.82-3.82H15.89Z"/>
	<path class="cls-2" d="M15.89,11.37v8.77A3.82,3.82,0,0,1,12.06,24H2.58Z"/>
	<line class="cls-3" x1="13.71" y1="33.58" x2="31.4" y2="33.58"/>
	<line class="cls-3" x1="13.71" y1="41.5" x2="50.44" y2="41.5"/>
	<line class="cls-3" x1="13.71" y1="49.42" x2="50.44" y2="49.42"/>
	<line class="cls-4" x1="13.71" y1="57.35" x2="50.44" y2="57.35"/>
	<line class="cls-4" x1="13.71" y1="64.71" x2="50.44" y2="64.71"/>
	<line class="cls-4" x1="13.56" y1="72.65" x2="50.29" y2="72.65"/>
	<path class="cls-5" d="M21.86,3.23v2.1a2.23,2.23,0,0,1-4.46,0V3.23a2.23,2.23,0,1,1,4.46,0"/>
	<polygon class="cls-6" points="51.81 7.56 59.56 4.28 51.81 1 50.9 4.41 51.81 7.56"/>
	<rect class="cls-7" x="20.89" y="5.38" width="30.26" height="2.19"/>
	<rect class="cls-8" x="20.89" y="3.19" width="30.26" height="2.19"/>
	<rect class="cls-7" x="20.89" y="1" width="30.26" height="2.19"/>
	<path class="cls-7" d="M52.27,6.85c0-.41-.52-.69-.52-1.24a.52.52,0,0,1,0-.23h-.65V7.56h.6s.52-.3.52-.71"/>
	<path class="cls-8" d="M51.8,5.38c.13-.36.56-.52.56-1.1s-.43-.74-.56-1.09h-.65V5.38Z"/>
	<path class="cls-7" d="M51.8,3.19a.6.6,0,0,1,0-.24c0-.55.52-.82.52-1.23S51.75,1,51.75,1h-.6V3.19Z"/>
	<polygon class="cls-9" points="59.56 4.28 56.81 3.12 56.81 5.44 59.56 4.28"/>
	<rect class="cls-9" x="20" y="1" width="0.89" height="6.56"/>
</svg>
