<svg id="Layer_1" data-name="Layer 1" xmlns="http://www.w3.org/2000/svg" xmlns:xlink="http://www.w3.org/1999/xlink" viewBox="0 0 64 88"><defs><style>.cls-1,.cls-2{fill:none;}.cls-2{clip-rule:evenodd;}.cls-3{fill:#afc9c8;}.cls-4{fill:#c42b34;}.cls-5{fill:#2e3137;}.cls-6{fill:#d84b55;}.cls-7{fill:#e6e5e2;}.cls-8{fill:#561d5b;}.cls-9{fill:#7c7085;}.cls-10{fill:#2f3137;}.cls-11{clip-path:url(#clip-path);}.cls-12{clip-path:url(#clip-path-2);}.cls-13{clip-path:url(#clip-path-3);}.cls-14{clip-path:url(#clip-path-4);}.cls-15{clip-path:url(#clip-path-5);}</style><clipPath id="clip-path"><rect class="cls-1" x="202.6" y="-121.13" width="63.12" height="37.99" rx="4.39" ry="4.39"/></clipPath><clipPath id="clip-path-2"><path class="cls-2" d="M237.73-117.17h-5.88a.79.79,0,0,1-.79-.79v-1a.79.79,0,0,1,.79-.79h5.88a.79.79,0,0,1,.79.79v1a.79.79,0,0,1-.79.79"/></clipPath><clipPath id="clip-path-3"><rect class="cls-1" x="233.09" y="-128.4" width="3.41" height="10.19"/></clipPath><clipPath id="clip-path-4"><path class="cls-2" d="M694.14-554.23c-.58,1.86,0,4.7,1.9,4.56,2.13-.16,2.54-3.67,1.7-5.48a1.92,1.92,0,0,0-1.71-1C694.89-556.19,694.25-554.59,694.14-554.23Z"/></clipPath><clipPath id="clip-path-5"><path class="cls-2" d="M716-555.16c-.83,1.81-.43,5.33,1.7,5.48,1.95.15,2.49-2.7,1.9-4.56-.11-.35-.75-2-1.89-2A1.92,1.92,0,0,0,716-555.16Z"/></clipPath></defs><title>scg_filene</title><circle class="cls-3" cx="20.91" cy="19.2" r="14.62" transform="translate(-7.25 15.59) rotate(-35.26)"/><path class="cls-4" d="M46.81,54.75A3.29,3.29,0,0,1,42.22,54L31,38.09a3.29,3.29,0,0,1,5.38-3.8L47.59,50.16A3.29,3.29,0,0,1,46.81,54.75Z"/><path class="cls-5" d="M30.44,31.59A15.74,15.74,0,1,1,34.2,9.65,15.76,15.76,0,0,1,30.44,31.59ZM13.53,7.67a13.55,13.55,0,1,0,18.88,3.24A13.56,13.56,0,0,0,13.53,7.67Z"/><path class="cls-5" d="M33.71,36.22c-1,.7-2.06.89-2.76-.1l-2.34-3.31a2.2,2.2,0,1,1,3.58-2.53l2.34,3.31C35.24,34.58,34.7,35.52,33.71,36.22Z"/><path class="cls-6" d="M32.31,38.54l10.59,15a1.1,1.1,0,1,0,1.79-1.27L34.55,37.92A3.16,3.16,0,0,1,32.31,38.54Z"/><path class="cls-7" d="M56.23,44.18h0a1.92,1.92,0,0,1,2,1.78v18.9a2.06,2.06,0,0,1-4.07,0V46a1.92,1.92,0,0,1,2-1.78"/><path class="cls-7" d="M51.76,41.12h0a2,2,0,0,1,2,2v24.5a2,2,0,0,1-4.08,0V43.16a2,2,0,0,1,2-2"/><path class="cls-7" d="M47.29,37.66h0a2,2,0,0,1,2,2V69.06a2,2,0,0,1-4.08,0V39.7a2,2,0,0,1,2-2"/><path class="cls-7" d="M42.81,34.62h0a2,2,0,0,1,2,2V56.25a2,2,0,0,1-4.08,0V36.66a2,2,0,0,1,2-2"/><path class="cls-7" d="M56,70.2V67.67c0-.69,1.21-1.27,1.21-1.27L54.66,46.08H42.81l-2,6.67s-.5.15-1-.61-2-4.37-2-4.37-2-4.26-3.84-3.49-1,3.57-1,3.57.94,4.42,1.46,6.52a26.56,26.56,0,0,0,3.45,7.37c1.27,2,3.68,4.9,4.53,4.9l.19,3.57Z"/><rect class="cls-8" x="40.26" y="70.2" width="18.13" height="14.8"/><rect class="cls-9" x="40.26" y="70.2" width="18.13" height="5.47"/><path class="cls-10" d="M56.5,73a1.15,1.15,0,1,0-1.15,1.15A1.15,1.15,0,0,0,56.5,73"/></svg>