<svg id="Layer_1" data-name="Layer 1" xmlns="http://www.w3.org/2000/svg" xmlns:xlink="http://www.w3.org/1999/xlink" viewBox="0 0 64 88"><defs><style>.cls-1,.cls-2{fill:none;}.cls-2{clip-rule:evenodd;}.cls-3{fill:#fff;}.cls-4{fill:#cde7d8;}.cls-5{fill:#627282;}.cls-6{clip-path:url(#clip-path);}.cls-7{fill:#9aceae;}.cls-8{clip-path:url(#clip-path-2);}.cls-9{fill:#3e3832;}.cls-10{clip-path:url(#clip-path-3);}.cls-11{clip-path:url(#clip-path-4);}.cls-12{clip-path:url(#clip-path-5);}.cls-13{clip-path:url(#clip-path-6);}.cls-14{clip-path:url(#clip-path-7);}</style><clipPath id="clip-path"><path class="cls-1" d="M35.58,40.38l-5.2,4.85a.35.35,0,0,1-.48,0l-1.73-1.73a.35.35,0,0,1,.49-.49l1.49,1.49,5-4.62a.35.35,0,1,1,.47.51Zm-3.7-6.14a8.31,8.31,0,1,0,8.31,8.31A8.32,8.32,0,0,0,31.88,34.24Z"/></clipPath><clipPath id="clip-path-2"><path class="cls-2" d="M35.58,40.38l-5.2,4.85a.35.35,0,0,1-.48,0l-1.73-1.73a.35.35,0,0,1,.49-.49l1.49,1.49,5-4.62a.35.35,0,1,1,.47.51Z"/></clipPath><clipPath id="clip-path-3"><rect class="cls-1" x="317.65" y="-119.24" width="63.12" height="37.99" rx="4.39" ry="4.39"/></clipPath><clipPath id="clip-path-4"><path class="cls-2" d="M352.78-115.28H346.9a.79.79,0,0,1-.79-.79v-1a.79.79,0,0,1,.79-.79h5.88a.79.79,0,0,1,.79.79v1a.79.79,0,0,1-.79.79"/></clipPath><clipPath id="clip-path-5"><rect class="cls-1" x="348.14" y="-126.51" width="3.41" height="10.19"/></clipPath><clipPath id="clip-path-6"><path class="cls-2" d="M809.19-552.34c-.58,1.86,0,4.7,1.9,4.56,2.13-.16,2.54-3.67,1.7-5.48a1.92,1.92,0,0,0-1.71-1C809.94-554.29,809.3-552.69,809.19-552.34Z"/></clipPath><clipPath id="clip-path-7"><path class="cls-2" d="M831.08-553.27c-.83,1.81-.43,5.33,1.7,5.48,1.95.15,2.49-2.7,1.9-4.56-.11-.35-.75-2-1.89-2A1.92,1.92,0,0,0,831.08-553.27Z"/></clipPath></defs><title>scg_filene</title><rect class="cls-3" x="8.49" y="3" width="47.02" height="82" rx="5.63" ry="5.63"/><rect class="cls-4" x="12" y="12.73" width="40" height="60.39"/><ellipse class="cls-5" cx="32" cy="78.87" rx="3.41" ry="3.44"/><g class="cls-6"><rect class="cls-7" x="20.11" y="30.78" width="23.55" height="23.55"/></g><g class="cls-8"><rect class="cls-9" x="24.61" y="36.32" width="14.55" height="12.47"/></g></svg>