<svg id="Layer_1" data-name="Layer 1" xmlns="http://www.w3.org/2000/svg" xmlns:xlink="http://www.w3.org/1999/xlink" viewBox="0 0 64 88"><defs><style>.cls-1,.cls-2{fill:none;}.cls-2{clip-rule:evenodd;}.cls-3{fill:#e4e3da;}.cls-4{fill:#babbbb;}.cls-5{fill:#8e9294;}.cls-6{fill:#c42b34;}.cls-7{fill:#e1cfb4;}.cls-8{fill:#e8c163;}.cls-9{fill:#d9b15b;}.cls-10{fill:#535756;}.cls-11{clip-path:url(#clip-path);}.cls-12{clip-path:url(#clip-path-2);}.cls-13{clip-path:url(#clip-path-3);}.cls-14{clip-path:url(#clip-path-4);}.cls-15{clip-path:url(#clip-path-5);}</style><clipPath id="clip-path"><rect class="cls-1" x="96.44" y="-121.13" width="63.12" height="37.99" rx="4.39" ry="4.39"/></clipPath><clipPath id="clip-path-2"><path class="cls-2" d="M131.57-117.17h-5.88a.79.79,0,0,1-.79-.79v-1a.79.79,0,0,1,.79-.79h5.88a.79.79,0,0,1,.79.79v1a.79.79,0,0,1-.79.79"/></clipPath><clipPath id="clip-path-3"><rect class="cls-1" x="126.92" y="-128.4" width="3.41" height="10.19"/></clipPath><clipPath id="clip-path-4"><path class="cls-2" d="M588-554.23c-.58,1.86,0,4.7,1.9,4.56,2.13-.16,2.54-3.67,1.7-5.48a1.92,1.92,0,0,0-1.71-1C588.73-556.19,588.09-554.59,588-554.23Z"/></clipPath><clipPath id="clip-path-5"><path class="cls-2" d="M609.87-555.16c-.83,1.81-.43,5.33,1.7,5.48,1.95.15,2.49-2.7,1.9-4.56-.11-.35-.75-2-1.89-2A1.92,1.92,0,0,0,609.87-555.16Z"/></clipPath></defs><title>scg_filene</title><path class="cls-3" d="M4,24.89V81.36A3.64,3.64,0,0,0,7.6,85H56.41A3.64,3.64,0,0,0,60,81.36V16.53a3.64,3.64,0,0,0-3.64-3.64H16.64Z"/><path class="cls-4" d="M16.64,12.88v8.36A3.64,3.64,0,0,1,13,24.89H4Z"/><rect class="cls-5" x="14.6" y="40.73" width="34.79" height="3.03"/><rect class="cls-5" x="14.6" y="47.4" width="34.79" height="3.03"/><rect class="cls-5" x="14.6" y="54.06" width="34.67" height="3.03"/><rect class="cls-5" x="14.6" y="60.72" width="34.67" height="3.02"/><rect class="cls-5" x="14.6" y="67.38" width="34.67" height="3.03"/><rect class="cls-5" x="14.6" y="34.07" width="34.79" height="3.03"/><path class="cls-6" d="M22.33,5.13v2a2.13,2.13,0,1,1-4.25,0v-2a2.13,2.13,0,1,1,4.25,0"/><polygon class="cls-7" points="50.88 9.26 58.27 6.13 50.88 3 50.02 6.25 50.88 9.26"/><rect class="cls-8" x="21.41" y="7.17" width="28.85" height="2.09"/><rect class="cls-9" x="21.41" y="5.09" width="28.85" height="2.09"/><rect class="cls-8" x="21.41" y="3" width="28.85" height="2.09"/><path class="cls-8" d="M51.33,8.58c0-.39-.5-.66-.5-1.18a.54.54,0,0,1,0-.22h-.62V9.26h.58s.5-.29.5-.68"/><path class="cls-9" d="M50.88,7.17c.13-.34.53-.49.53-1s-.41-.7-.53-1h-.62V7.17Z"/><path class="cls-8" d="M50.88,5.09a.55.55,0,0,1,0-.22c0-.52.5-.79.5-1.18s-.5-.68-.5-.68h-.58V5.09Z"/><polygon class="cls-10" points="58.27 6.13 55.66 5.02 55.66 7.24 58.27 6.13"/><rect class="cls-10" x="20.56" y="3" width="0.85" height="6.26"/></svg>