<svg role="img" aria-labelled-by="cv-spm-05_title" id="Layer_1" data-name="Layer 1" xmlns="http://www.w3.org/2000/svg" viewBox="0 0 64 88">
	<title id="cv-spm-05_title">Snakkeboble med OK-hake</title>
	<defs>
		<style>
			.cls-1{fill:#e4e3da;}.cls-2,.cls-4{fill:none;stroke-linecap:round;}.cls-2{stroke:#8e9294;stroke-miterlimit:10;stroke-width:3.07px;}.cls-3{fill:#9bd0b0;}.cls-4{stroke:#3e3832;stroke-linejoin:round;stroke-width:1.28px;}
		</style>
	</defs>
	<path class="cls-1"
		  d="M52.3,58.26H34.53l-5.46,6.67a.81.81,0,0,1-1.07,0l-5.46-6.67H5.18A4.18,4.18,0,0,1,1,54.07V22.42a4.19,4.19,0,0,1,4.18-4.2H52.3a4.19,4.19,0,0,1,4.18,4.2V54.07A4.18,4.18,0,0,1,52.3,58.26Z"/>
	<line class="cls-2" x1="10.84" y1="31.71" x2="28.09" y2="31.71"/>
	<line class="cls-2" x1="10.84" y1="39.44" x2="46.65" y2="39.44"/>
	<line class="cls-2" x1="10.84" y1="47.16" x2="46.65" y2="47.16"/>
	<circle class="cls-3" cx="50.58" cy="54.36" r="12.42"/>
	<polyline class="cls-4" points="44.64 54.77 48.16 58.02 56.51 50.71"/>
</svg>
