<svg role="img" aria-labelled-by="finn-spm-04_title" id="Layer_1" data-name="Layer 1" xmlns="http://www.w3.org/2000/svg" viewBox="0 0 64 88">
	<title id="finn-spm-04_title">Forstørrelsesglass</title>
	<defs>
		<style>.cls-1{fill:#e0f5fb;stroke:#2e3137;stroke-miterlimit:10;}.cls-2{fill:#c42b34;}.cls-3{fill:#2e3137;}.cls-4{fill:#d84b55;}</style>
	</defs>
	<circle class="cls-1" cx="23.17" cy="28.49" r="21.35"/>
	<path class="cls-2" d="M61,80.38a4.8,4.8,0,0,1-6.7-1.15L37.89,56.06a4.8,4.8,0,0,1,7.85-5.54L62.12,73.69A4.8,4.8,0,0,1,61,80.38Z"/>
	<path class="cls-3" d="M41.85,53.34c-1.44,1-3,1.3-4-.14l-3.42-4.83a3.2,3.2,0,1,1,5.23-3.7l3.42,4.83C44.08,51,43.3,52.32,41.85,53.34Z"/>
	<path class="cls-4" d="M39.8,56.73,55.26,78.6a1.6,1.6,0,0,0,2.62-1.85L43.08,55.82A4.59,4.59,0,0,1,39.8,56.73Z"/>
	<path class="cls-3"
		  d="M42.73,14.44a23,23,0,1,0-5.5,32A23,23,0,0,0,42.73,14.44Zm-1.56,23a19.44,19.44,0,0,1-1.05,1.67,19.81,19.81,0,1,1,3-16.17c.15.62.28,1.25.37,1.89a19.67,19.67,0,0,1,.08,5.14,16.92,16.92,0,0,1-.31,1.89A19.73,19.73,0,0,1,41.17,37.4Z"/>
</svg>
