<svg id="Layer_1" data-name="Layer 1" xmlns="http://www.w3.org/2000/svg" xmlns:xlink="http://www.w3.org/1999/xlink" viewBox="0 0 64 88"><defs><style>.cls-1,.cls-2{fill:none;}.cls-2{clip-rule:evenodd;}.cls-3{clip-path:url(#clip-path);}.cls-4{clip-path:url(#clip-path-2);}.cls-5{fill:#efefef;}.cls-6{clip-path:url(#clip-path-3);}.cls-7{fill:#5a1f57;}.cls-8{clip-path:url(#clip-path-5);}.cls-9{fill:#835184;}.cls-10{fill:#babbbb;}.cls-11{fill:#8e9294;}.cls-12{clip-path:url(#clip-path-7);}.cls-13{clip-path:url(#clip-path-8);}</style><clipPath id="clip-path"><rect class="cls-1" x="0.44" y="28.64" width="63.12" height="37.99" rx="4.39" ry="4.39"/></clipPath><clipPath id="clip-path-2"><rect class="cls-1" x="-1630.02" y="-1014.98" width="1934.13" height="2737.04"/></clipPath><clipPath id="clip-path-3"><path class="cls-2" d="M35.57,32.6H29.69a.79.79,0,0,1-.79-.79v-1a.79.79,0,0,1,.79-.79h5.88a.79.79,0,0,1,.79.79v1a.79.79,0,0,1-.79.79"/></clipPath><clipPath id="clip-path-5"><rect class="cls-1" x="30.93" y="21.37" width="3.41" height="10.19"/></clipPath><clipPath id="clip-path-7"><path class="cls-2" d="M492-404.46c-.58,1.86,0,4.7,1.9,4.56,2.13-.16,2.54-3.67,1.7-5.48a1.92,1.92,0,0,0-1.71-1C492.73-406.42,492.09-404.81,492-404.46Z"/></clipPath><clipPath id="clip-path-8"><path class="cls-2" d="M513.87-405.39c-.83,1.81-.43,5.33,1.7,5.48,1.95.15,2.49-2.7,1.9-4.56-.11-.35-.75-2-1.89-2A1.92,1.92,0,0,0,513.87-405.39Z"/></clipPath></defs><title>scg_filene</title><g class="cls-3"><g class="cls-4"><rect class="cls-5" x="-15.81" y="12.38" width="95.63" height="70.5"/></g></g><g class="cls-6"><g class="cls-4"><rect class="cls-7" x="12.65" y="13.78" width="39.96" height="35.07"/></g></g><g class="cls-8"><g class="cls-4"><rect class="cls-9" x="14.68" y="5.12" width="35.91" height="42.7"/></g></g><rect class="cls-10" x="10.52" y="36.97" width="8.71" height="8.71"/><rect class="cls-11" x="10.52" y="51.61" width="38.01" height="2.47"/><rect class="cls-11" x="10.52" y="57.24" width="31.53" height="2.47"/></svg>