<svg role="img" aria-labelled-by="finn-spm-02_title" id="Layer_1" data-name="Layer 1" xmlns="http://www.w3.org/2000/svg" viewBox="0 0 64 88">
	<title id="finn-spm-02_title">Uthevet stedsmarkering</title>
	<defs>
		<style>.cls-1{fill:#e4e3da;}.cls-2{fill:#d74b55;}.cls-3{fill:#e25d6d;}.cls-4{fill:#fff;}.cls-5{fill:#3e3832;}</style>
	</defs>
	<ellipse class="cls-1" cx="32" cy="76.98" rx="29.5" ry="10.44"/>
	<path class="cls-2" d="M49.58,11.26a24.88,24.88,0,0,0-35.16,0C5.68,20,4.7,36.48,12.12,46.38L32,75.09,51.89,46.38c7.42-9.9,6.43-26.37-2.31-35.12Z"/>
	<path class="cls-3" d="M32,4.13a24.82,24.82,0,0,0-17.58,7.28c-8.74,8.75-9.73,25.22-2.3,35.11L32,75.23Z"/>
	<circle class="cls-4" cx="32" cy="26.36" r="7.17"/>
	<path class="cls-5" d="M32,34.88a8.52,8.52,0,1,1,8.52-8.52A8.53,8.53,0,0,1,32,34.88Zm0-14.34a5.83,5.83,0,1,0,5.83,5.82A5.83,5.83,0,0,0,32,20.54Z"/>
	<path class="cls-5"
		  d="M32,4.39a24,24,0,0,1,17,7.05c8.39,8.4,9.46,24.82,2.24,34.46l0,.05,0,.06L32,73.73,12.81,46,12.76,46l0-.06c-7.23-9.63-6.16-26,2.23-34.45A24,24,0,0,1,32,4.39M32,.58A27.83,27.83,0,0,0,12.26,8.75C2.44,18.57,1.34,37.07,9.67,48.18L32,80.42,54.33,48.18c8.34-11.11,7.23-29.61-2.59-39.43A27.82,27.82,0,0,0,32,.58Z"/>
</svg>
