<svg id="Layer_1" data-name="Layer 1" xmlns="http://www.w3.org/2000/svg" xmlns:xlink="http://www.w3.org/1999/xlink" viewBox="0 0 64 88"><defs><style>.cls-1,.cls-10,.cls-2{fill:none;}.cls-2{clip-rule:evenodd;}.cls-3{clip-path:url(#clip-path);}.cls-4{clip-path:url(#clip-path-2);}.cls-5{clip-path:url(#clip-path-3);}.cls-6{fill:#e4e3da;}.cls-7{fill:#d74b55;}.cls-8{fill:#e25d6d;}.cls-9{fill:#fff;stroke-width:2.64px;}.cls-10,.cls-9{stroke:#3e3832;stroke-miterlimit:10;}.cls-10{stroke-width:3.73px;}.cls-11{clip-path:url(#clip-path-4);}.cls-12{clip-path:url(#clip-path-5);}</style><clipPath id="clip-path"><rect class="cls-1" x="310.44" y="28.64" width="63.12" height="37.99" rx="4.39" ry="4.39"/></clipPath><clipPath id="clip-path-2"><path class="cls-2" d="M345.57,32.6h-5.88a.79.79,0,0,1-.79-.79v-1a.79.79,0,0,1,.79-.79h5.88a.79.79,0,0,1,.79.79v1a.79.79,0,0,1-.79.79"/></clipPath><clipPath id="clip-path-3"><rect class="cls-1" x="340.92" y="21.37" width="3.41" height="10.19"/></clipPath><clipPath id="clip-path-4"><path class="cls-2" d="M802-404.46c-.58,1.86,0,4.7,1.9,4.56,2.13-.16,2.54-3.67,1.7-5.48a1.92,1.92,0,0,0-1.71-1C802.73-406.42,802.09-404.81,802-404.46Z"/></clipPath><clipPath id="clip-path-5"><path class="cls-2" d="M823.87-405.39c-.83,1.81-.43,5.33,1.7,5.48,1.95.15,2.49-2.7,1.9-4.56-.11-.35-.75-2-1.89-2A1.92,1.92,0,0,0,823.87-405.39Z"/></clipPath></defs><title>scg_filene</title><ellipse class="cls-6" cx="32" cy="74.75" rx="28.96" ry="10.25"/><path class="cls-7" d="M49.26,10.14a24.41,24.41,0,0,0-34.51,0C6.16,18.73,5.19,34.9,12.48,44.61L32,72.8,51.52,44.61c7.28-9.71,6.32-25.89-2.27-34.47Z"/><path class="cls-8" d="M32,3.23a24.34,24.34,0,0,0-17.26,7.14C6.16,19,5.19,35.13,12.48,44.85L32,73Z"/><circle class="cls-9" cx="32" cy="25.05" r="7.04"/><path class="cls-10" d="M49.26,10.14a24.41,24.41,0,0,0-34.51,0C6.16,18.73,5.19,34.9,12.48,44.61L32,72.8,51.52,44.61c7.28-9.71,6.32-25.89-2.27-34.47Z"/></svg>