<svg id="Layer_1" data-name="Layer 1" xmlns="http://www.w3.org/2000/svg" xmlns:xlink="http://www.w3.org/1999/xlink" viewBox="0 0 64 88"><defs><style>.cls-1,.cls-2{fill:none;}.cls-2{clip-rule:evenodd;}.cls-3{clip-path:url(#clip-path);}.cls-4{clip-path:url(#clip-path-2);}.cls-5{clip-path:url(#clip-path-3);}.cls-6{fill:#e4e3da;}.cls-7{fill:#babbbb;}.cls-8{fill:#8e9294;}.cls-9{clip-path:url(#clip-path-4);}.cls-10{clip-path:url(#clip-path-5);}</style><clipPath id="clip-path"><rect class="cls-1" x="96.44" y="28.64" width="63.12" height="37.99" rx="4.39" ry="4.39"/></clipPath><clipPath id="clip-path-2"><path class="cls-2" d="M131.57,32.6h-5.88a.79.79,0,0,1-.79-.79v-1a.79.79,0,0,1,.79-.79h5.88a.79.79,0,0,1,.79.79v1a.79.79,0,0,1-.79.79"/></clipPath><clipPath id="clip-path-3"><rect class="cls-1" x="126.92" y="21.37" width="3.41" height="10.19"/></clipPath><clipPath id="clip-path-4"><path class="cls-2" d="M588-404.46c-.58,1.86,0,4.7,1.9,4.56,2.13-.16,2.54-3.67,1.7-5.48a1.92,1.92,0,0,0-1.71-1C588.73-406.42,588.09-404.81,588-404.46Z"/></clipPath><clipPath id="clip-path-5"><path class="cls-2" d="M609.87-405.39c-.83,1.81-.43,5.33,1.7,5.48,1.95.15,2.49-2.7,1.9-4.56-.11-.35-.75-2-1.89-2A1.92,1.92,0,0,0,609.87-405.39Z"/></clipPath></defs><title>scg_filene</title><path class="cls-6" d="M0,16.56V81a4.16,4.16,0,0,0,4.16,4.16H59.84A4.16,4.16,0,0,0,64,81V7a4.16,4.16,0,0,0-4.16-4.16H14.47Z"/><path class="cls-7" d="M14.47,2.86V12.4a4.16,4.16,0,0,1-4.16,4.16H0Z"/><rect class="cls-8" x="12.15" y="34.64" width="39.7" height="3.45"/><rect class="cls-8" x="12.15" y="42.24" width="39.7" height="3.45"/><rect class="cls-8" x="12.15" y="49.84" width="39.55" height="3.45"/><rect class="cls-8" x="12.15" y="57.44" width="39.55" height="3.45"/><rect class="cls-8" x="12.15" y="65.04" width="39.55" height="3.45"/><rect class="cls-8" x="12.15" y="27.03" width="39.7" height="3.45"/></svg>