<svg role="img" aria-labelled-by="finn-spm-03_title" id="Layer_1" data-name="Layer 1" xmlns="http://www.w3.org/2000/svg" viewBox="0 0 64 88">
	<title id="finn-spm-03_title">Papirdokument</title>
	<defs>
		<style>
			.cls-1{fill:#8e9294;}.cls-2{fill:#babbbb;}.cls-3{fill:#e4e3da;}.cls-4,.cls-5{fill:none;stroke:#8e9294;stroke-linecap:round;stroke-miterlimit:10;}.cls-4{stroke-width:2.92px;}.cls-5{stroke-width:3.07px;}
		</style>
	</defs>
	<path class="cls-1" d="M4.66,21.39V80.11A3.79,3.79,0,0,0,8.45,83.9H59.21A3.79,3.79,0,0,0,63,80.11V12.69A3.79,3.79,0,0,0,59.21,8.9H17.85Z"/>
	<path class="cls-1" d="M17.85,8.9v8.7a3.79,3.79,0,0,1-3.79,3.79H4.66Z"/>
	<path class="cls-2" d="M3.32,19V77.66a3.79,3.79,0,0,0,3.79,3.79H57.87a3.78,3.78,0,0,0,3.79-3.79V10.25a3.78,3.78,0,0,0-3.79-3.79H16.52Z"/>
	<path class="cls-2" d="M16.52,6.46v8.69A3.8,3.8,0,0,1,12.73,19H3.32Z"/>
	<path class="cls-3" d="M1,16.61V75.42a3.8,3.8,0,0,0,3.8,3.79H55.63a3.8,3.8,0,0,0,3.8-3.79V7.9a3.8,3.8,0,0,0-3.8-3.8H14.21Z"/>
	<path class="cls-2" d="M14.21,4.1v8.71a3.8,3.8,0,0,1-3.79,3.8H1Z"/>
	<line class="cls-4" x1="12.31" y1="29.1" x2="46.36" y2="29.1"/>
	<line class="cls-4" x1="12.31" y1="35.64" x2="46.36" y2="35.64"/>
	<line class="cls-4" x1="12.31" y1="42.98" x2="46.36" y2="42.98"/>
	<line class="cls-5" x1="12.31" y1="50.33" x2="46.36" y2="50.33"/>
	<line class="cls-5" x1="12.31" y1="57.15" x2="46.36" y2="57.15"/>
	<line class="cls-5" x1="12.18" y1="64.5" x2="46.22" y2="64.5"/>
</svg>
