<svg role="img" aria-labelled-by="finn-spm-05_title" id="Layer_1" data-name="Layer 1" xmlns="http://www.w3.org/2000/svg" viewBox="0 0 64 88">
	<title id="finn-spm-05_title">Tommel opp</title>
	<defs>
		<style>.cls-1{fill:#cce1f7;}.cls-2{fill:#e0f5fb;}.cls-3{fill:#005b82;}.cls-4{fill:#fff;}.cls-5{fill:#d3d3d3;}</style>
	</defs>
	<path class="cls-1" d="M5.5,35.42H1.37A31.88,31.88,0,0,0,1,40.24,30.79,30.79,0,0,0,4.94,55.36H5.5Z"/>
	<path class="cls-2" d="M32,9.24A31,31,0,0,0,1.37,35.42H5.5V55.36H4.94A31,31,0,1,0,32,9.24Z"/>
	<rect class="cls-3" x="5.5" y="35.42" width="8.16" height="19.94"/>
	<circle class="cls-4" cx="9.25" cy="52.03" r="1.62"/>
	<path id="Shape" class="cls-5"
		  d="M53.94,42.94a3,3,0,0,0-1.61-2.63.57.57,0,0,1-.16-.38,2.05,2.05,0,0,1,.16-1,2.92,2.92,0,0,0,.75-1.72A3,3,0,0,0,50.34,34l-9.5-.76-1.51-.37s-2-.75-.1-2.53l4.4-4.19s5-4.78,3.06-7-5.42.27-5.42.27-3.82,2.2-6.5,3.92c-3.39,2.15-5.8,2.68-8.7,4.56S18.92,34,18.92,35.2l-5.26.27V55.14h3.71a12.92,12.92,0,0,1,2.9,1c1.23,2.21,4.88,3,6.28,2.9,0,0,9.51-.26,12.14-.37s7.68-.86,7.68-.86a2.82,2.82,0,0,0,2.47-3.12v-.16A4,4,0,0,1,50,52.18c.16-.16.32-.27.48-.43a3,3,0,0,0,2-2.85A2.68,2.68,0,0,0,51.79,47c0-.7.27-.91.54-1.45A2.79,2.79,0,0,0,53.94,42.94Z"/>
</svg>
