<svg id="Layer_1" data-name="Layer 1" xmlns="http://www.w3.org/2000/svg" xmlns:xlink="http://www.w3.org/1999/xlink" viewBox="0 0 64 88"><defs><style>.cls-1,.cls-10,.cls-2,.cls-9{fill:none;}.cls-2{clip-rule:evenodd;}.cls-3{clip-path:url(#clip-path);}.cls-4{clip-path:url(#clip-path-2);}.cls-5{clip-path:url(#clip-path-3);}.cls-6{clip-path:url(#clip-path-4);}.cls-7{clip-path:url(#clip-path-5);}.cls-8{fill:#625e58;}.cls-9{stroke:#d0bea2;stroke-width:0.72px;}.cls-10,.cls-9{stroke-linecap:round;}.cls-10{stroke:#cf9c9b;stroke-width:1.43px;}</style><clipPath id="clip-path"><rect class="cls-1" x="-106.21" y="30.64" width="63.12" height="37.99" rx="4.39" ry="4.39"/></clipPath><clipPath id="clip-path-2"><path class="cls-2" d="M-71.08,34.6H-77a.79.79,0,0,1-.79-.79v-1A.79.79,0,0,1-77,32h5.88a.79.79,0,0,1,.79.79v1a.79.79,0,0,1-.79.79"/></clipPath><clipPath id="clip-path-3"><rect class="cls-1" x="-75.72" y="23.38" width="3.41" height="10.19"/></clipPath><clipPath id="clip-path-4"><path class="cls-2" d="M385.33-402.46c-.58,1.86,0,4.7,1.9,4.56,2.13-.16,2.54-3.67,1.7-5.48a1.92,1.92,0,0,0-1.71-1C386.08-404.41,385.44-402.81,385.33-402.46Z"/></clipPath><clipPath id="clip-path-5"><path class="cls-2" d="M407.22-403.38c-.83,1.81-.43,5.33,1.7,5.48,1.95.15,2.49-2.7,1.9-4.56-.11-.35-.75-2-1.89-2A1.92,1.92,0,0,0,407.22-403.38Z"/></clipPath></defs><title>scg_filene</title><path id="Fill-13" class="cls-8" d="M20.56,37.56c-2,.15-2.62-2.87-2-4.84.12-.37.79-2.08,2-2.08a2,2,0,0,1,1.8,1.09c.88,1.92.45,5.66-1.79,5.82"/><path id="Fill-15" class="cls-8" d="M43.44,37.56c2,.15,2.62-2.87,2-4.84-.12-.37-.79-2.08-2-2.08a2,2,0,0,0-1.8,1.09c-.88,1.92-.45,5.66,1.79,5.82"/><path id="Fill-19" class="cls-1" d="M32.54,40.33c1.22-.19,2.42-.14,3,.55,1.37,1.68,1,3.62-1.33,5a4.53,4.53,0,0,1-3.78.57"/><path id="Stroke-21" class="cls-9" d="M32.54,40.33c1.22-.19,2.42-.14,3,.55,1.37,1.68,1,3.62-1.33,5a4.53,4.53,0,0,1-3.78.57"/><path class="cls-10" d="M41.37,51.64a10.35,10.35,0,0,1-9.79,5.71,11.46,11.46,0,0,1-9.9-5.71"/></svg>