<svg id="Layer_1" data-name="Layer 1" xmlns="http://www.w3.org/2000/svg" xmlns:xlink="http://www.w3.org/1999/xlink" viewBox="0 0 64 88"><defs><style>.cls-1,.cls-2,.cls-3{fill:none;}.cls-1{clip-rule:evenodd;}.cls-3{fill-rule:evenodd;}.cls-4{clip-path:url(#clip-path);}.cls-5{fill:#b0c9c8;}.cls-6{clip-path:url(#clip-path-2);}.cls-7{clip-path:url(#clip-path-3);}.cls-8{clip-path:url(#clip-path-4);}.cls-9{clip-path:url(#clip-path-5);}.cls-10{fill:#c52c34;}.cls-11{clip-path:url(#clip-path-6);}.cls-12{clip-path:url(#clip-path-7);}.cls-13{clip-path:url(#clip-path-8);}.cls-14{clip-path:url(#clip-path-9);}.cls-15{fill:#2f3238;}.cls-16{clip-path:url(#clip-path-10);}.cls-17{clip-path:url(#clip-path-11);}.cls-18{fill:#d84c56;}.cls-19{fill:#0d5573;}</style><clipPath id="clip-path"><path class="cls-1" d="M40.94,15.85A22.59,22.59,0,0,1,35.68,47,21.75,21.75,0,0,1,5,41.65,22.59,22.59,0,0,1,10.31,10.5a21.75,21.75,0,0,1,30.63,5.35"/></clipPath><clipPath id="clip-path-2"><rect class="cls-2" x="37.24" y="49.68" width="26.76" height="34.32"/></clipPath><clipPath id="clip-path-3"><rect class="cls-2" x="36.03" y="48.36" width="29.03" height="36.62"/></clipPath><clipPath id="clip-path-4"><path class="cls-1" d="M61.91,83.08A4.9,4.9,0,0,1,55,81.87L38.15,57.62a5.09,5.09,0,0,1,1.18-7,4.89,4.89,0,0,1,6.9,1.21L63.09,76.06a5.09,5.09,0,0,1-1.18,7"/></clipPath><clipPath id="clip-path-5"><rect class="cls-2" x="37.04" y="49.38" width="27.03" height="34.59"/></clipPath><clipPath id="clip-path-6"><rect class="cls-2" y="4" width="47.3" height="48.09"/></clipPath><clipPath id="clip-path-7"><rect class="cls-2" x="-4" y="0.55" width="55.05" height="54.93"/></clipPath><clipPath id="clip-path-8"><path class="cls-1" d="M37.3,47.69a23.44,23.44,0,0,1-33-5.76A24.34,24.34,0,0,1,10,8.4a23.44,23.44,0,0,1,33,5.75A24.34,24.34,0,0,1,37.3,47.69M11.9,11.14A21,21,0,0,0,7,40a20.17,20.17,0,0,0,28.38,5A21,21,0,0,0,40.27,16.1a20.17,20.17,0,0,0-28.38-5"/></clipPath><clipPath id="clip-path-9"><rect class="cls-2" y="3.6" width="48.05" height="48.83"/></clipPath><clipPath id="clip-path-10"><path class="cls-1" d="M42.23,54.77c-1.49,1.07-3.09,1.36-4.15-.15l-3.52-5.06a3.39,3.39,0,0,1,.79-4.67,3.26,3.26,0,0,1,4.6.8l3.52,5.06c1.05,1.51.25,3-1.24,4"/></clipPath><clipPath id="clip-path-11"><path class="cls-1" d="M40.12,58.31,56,81.21a1.63,1.63,0,0,0,2.3.4,1.7,1.7,0,0,0,.39-2.34L43.5,57.36a4.69,4.69,0,0,1-3.38,1"/></clipPath></defs><title>Forstørrelsesglass</title><g class="cls-4"><rect class="cls-5" x="-3.99" y="1.31" width="53.97" height="54.87"/></g><g class="cls-6"><g class="cls-7"><g class="cls-8"><g class="cls-9"><rect class="cls-10" x="32.23" y="44.59" width="36.77" height="44.49"/></g></g></g></g><g class="cls-11"><g class="cls-12"><g class="cls-13"><g class="cls-14"><rect class="cls-15" x="-5" y="-1.09" width="57.31" height="58.26"/></g></g></g></g><g class="cls-16"><rect class="cls-15" x="28.95" y="39.18" width="20" height="21.57"/></g><g class="cls-17"><rect class="cls-18" x="35.11" y="52.27" width="28.92" height="34.73"/></g><path class="cls-19" d="M45,25.77H27.81a.85.85,0,0,1,0-1.71H45a.85.85,0,1,1,0,1.71Z"/><path class="cls-15" d="M61.5,25.77H48.7a.85.85,0,0,1,0-1.71H61.5a.85.85,0,1,1,0,1.71Z"/><path class="cls-19" d="M45,32.62H18.61a.85.85,0,0,1,0-1.71H45a.85.85,0,1,1,0,1.71Z"/><path class="cls-15" d="M61.82,32.62H48.7a.85.85,0,0,1,0-1.71H61.82a.85.85,0,1,1,0,1.71Z"/><path class="cls-19" d="M29.24,39.93H22.38a.85.85,0,1,1,0-1.71h6.85a.85.85,0,0,1,0,1.71Z"/><path class="cls-19" d="M42.29,39.93H32.15a.85.85,0,1,1,0-1.71H42.29a.85.85,0,1,1,0,1.71Z"/><path class="cls-15" d="M53.48,39.93h-7a.85.85,0,1,1,0-1.71h7a.85.85,0,0,1,0,1.71Z"/><g class="cls-11"><g class="cls-12"><g class="cls-13"><g class="cls-14"><rect class="cls-15" x="-5" y="-1.09" width="57.31" height="58.26"/></g></g></g></g></svg>