<svg id="Layer_1" data-name="Layer 1" xmlns="http://www.w3.org/2000/svg" xmlns:xlink="http://www.w3.org/1999/xlink" viewBox="0 0 548 547"><defs><style>.cls-1,.cls-19,.cls-2{fill:none;}.cls-1{clip-rule:evenodd;}.cls-3{fill:#ccc8c4;}.cls-4{fill:#627382;}.cls-5{fill:#fff;}.cls-6{fill:#d4e4f6;}.cls-7{fill:#2972c5;}.cls-8{clip-path:url(#clip-path);}.cls-9{clip-path:url(#clip-path-2);}.cls-10{fill:#0067c5;}.cls-11{clip-path:url(#clip-path-3);}.cls-12{clip-path:url(#clip-path-4);}.cls-13{clip-path:url(#clip-path-5);}.cls-14{clip-path:url(#clip-path-6);}.cls-15{fill:#e7e9e9;}.cls-16{fill:#9bd0b0;}.cls-17{fill:#e0f5fb;}.cls-18{fill:#6998a5;}.cls-19{stroke:#3e3832;stroke-linecap:round;stroke-linejoin:round;stroke-width:3px;}</style><clipPath id="clip-path"><path class="cls-1" d="M304.84,277.56l-3.74,3.24a.23.23,0,0,1-.16.06.25.25,0,0,1-.17-.08l-1.16-1.24a.24.24,0,1,1,.35-.33l1,1.08,3.56-3.09a.24.24,0,0,1,.32.36Z"/></clipPath><clipPath id="clip-path-2"><path class="cls-2" d="M305.08,277.57l-3.74,3.24a.23.23,0,0,1-.16.06.25.25,0,0,1-.17-.08l-1.16-1.24a.26.26,0,0,1,0-.35.24.24,0,0,1,.34,0l1,1.07,3.56-3.08a.24.24,0,0,1,.32.36Zm-2.42-4.36a5.78,5.78,0,1,0,5.57,6A5.79,5.79,0,0,0,302.66,273.21Z"/></clipPath><clipPath id="clip-path-3"><path class="cls-1" d="M304.84,333.66l-3.74,3.24a.23.23,0,0,1-.16.06.25.25,0,0,1-.17-.08l-1.16-1.24a.24.24,0,0,1,0-.34.23.23,0,0,1,.34,0l1,1.07,3.56-3.08a.24.24,0,0,1,.32.36Z"/></clipPath><clipPath id="clip-path-4"><path class="cls-2" d="M305.08,333.67l-3.74,3.24a.23.23,0,0,1-.16.06.25.25,0,0,1-.17-.08l-1.16-1.25a.25.25,0,0,1,0-.34.24.24,0,0,1,.34,0l1,1.07,3.56-3.08a.24.24,0,0,1,.32.36Zm-2.42-4.36a5.78,5.78,0,1,0,5.57,6A5.79,5.79,0,0,0,302.66,329.31Z"/></clipPath><clipPath id="clip-path-5"><path class="cls-1" d="M304.84,305.56l-3.74,3.24a.23.23,0,0,1-.16.06.25.25,0,0,1-.17-.08l-1.16-1.24a.24.24,0,1,1,.35-.33l1,1.08,3.56-3.09a.24.24,0,0,1,.32.36Z"/></clipPath><clipPath id="clip-path-6"><path class="cls-2" d="M305.08,305.57l-3.74,3.24a.23.23,0,0,1-.16.06.25.25,0,0,1-.17-.08l-1.16-1.24a.26.26,0,0,1,0-.35.24.24,0,0,1,.34,0l1,1.07,3.56-3.08a.24.24,0,0,1,.32.36Zm-2.42-4.36a5.78,5.78,0,1,0,5.57,6A5.79,5.79,0,0,0,302.66,301.21Z"/></clipPath></defs><title>Artboard 8 copy</title><rect class="cls-3" x="372.67" y="296" width="48.33" height="25" rx="12" ry="12"/><rect class="cls-3" x="364.84" y="264" width="48.33" height="25" rx="12" ry="12"/><rect class="cls-3" x="357" y="324" width="48.33" height="25" rx="12" ry="12"/><path class="cls-3" d="M186.12,373.74a23.43,23.43,0,0,0,6,5,261,261,0,0,0,75,7,105.69,105.69,0,0,0,23.33-6.23c4.8-1.9-.84-100.45-.84-100.45s-11.59-4.18-17.14-9.23l-91.56,96.46C183.29,368.07,184.38,371.5,186.12,373.74Z"/><rect class="cls-4" x="270" y="175" width="130" height="227" rx="12" ry="12"/><rect class="cls-5" x="280" y="201" width="111" height="168"/><path class="cls-6" d="M295.8,291.17l79,.27c4,0,7.28-2.56,7.3-5.73l.06-12.35c0-3.17-3.24-5.78-7.23-5.79l-79-.27c-4,0-7.28,2.56-7.3,5.73l-.06,12.35C288.55,288.55,291.8,291.16,295.8,291.17Z"/><path class="cls-7" d="M290.75,289.41a5.66,5.66,0,0,1-2.29-4.41l.07-11.59c0-3.43,3.55-6.21,7.88-6.2l78,.27c4.32,0,7.83,2.82,7.81,6.26l-.06,11.59a5.67,5.67,0,0,1-2.33,4.39,8.92,8.92,0,0,1-5.55,1.8l-78-.26a12.08,12.08,0,0,1-1.36-.1A8.68,8.68,0,0,1,290.75,289.41Zm83.68-21.76-78-.27c-4.21,0-7.66,2.69-7.67,6L288.67,285a5.45,5.45,0,0,0,2.22,4.29,8.6,8.6,0,0,0,5.39,1.8l78,.27a8.73,8.73,0,0,0,5.41-1.76,5.48,5.48,0,0,0,2.26-4.27l.07-11.59c0-3-2.71-5.48-6.29-6A9.54,9.54,0,0,0,374.43,267.65Z"/><g class="cls-8"><rect class="cls-5" x="297.87" y="273.92" width="8.67" height="10.12" transform="translate(12.45 570.86) rotate(-87.92)"/></g><g class="cls-9"><rect class="cls-10" x="294.26" y="270.8" width="16.38" height="16.38" transform="matrix(0.04, -1, 1, 0.04, 12.67, 571.11)"/></g><path class="cls-6" d="M295.8,319l79,.27c4,0,7.28-2.57,7.3-5.74l.06-12.34c0-3.17-3.24-5.78-7.23-5.79l-79-.27c-4,0-7.28,2.56-7.3,5.73l-.06,12.35C288.55,316.42,291.8,319,295.8,319Z"/><path class="cls-7" d="M290.75,317.28a5.66,5.66,0,0,1-2.29-4.41l.07-11.59c0-3.43,3.55-6.21,7.88-6.2l78,.27c4.32,0,7.83,2.82,7.81,6.26l-.06,11.59a5.63,5.63,0,0,1-2.33,4.38,8.86,8.86,0,0,1-5.55,1.81l-78-.26a12.08,12.08,0,0,1-1.36-.1A8.68,8.68,0,0,1,290.75,317.28Zm83.68-21.76-78-.27c-4.21,0-7.66,2.69-7.67,6l-.07,11.59a5.45,5.45,0,0,0,2.22,4.29,8.66,8.66,0,0,0,5.39,1.8l78,.27a8.73,8.73,0,0,0,5.41-1.76A5.5,5.5,0,0,0,382,313.2l.07-11.59c0-3-2.71-5.49-6.29-6A9.54,9.54,0,0,0,374.43,295.52Z"/><path class="cls-6" d="M295.8,346.91l79,.27c4,0,7.28-2.57,7.3-5.74l.06-12.35c0-3.17-3.24-5.77-7.23-5.78l-79-.28c-4,0-7.28,2.57-7.3,5.74l-.06,12.35C288.55,344.29,291.8,346.9,295.8,346.91Z"/><path class="cls-7" d="M290.75,345.15a5.66,5.66,0,0,1-2.29-4.41l.07-11.59c0-3.43,3.55-6.21,7.88-6.2l78,.27c4.32,0,7.83,2.82,7.81,6.25l-.06,11.59a5.64,5.64,0,0,1-2.33,4.39,8.86,8.86,0,0,1-5.55,1.81l-78-.27a10.13,10.13,0,0,1-1.36-.09A8.68,8.68,0,0,1,290.75,345.15Zm83.68-21.76-78-.27c-4.21,0-7.66,2.69-7.67,6l-.07,11.59a5.46,5.46,0,0,0,2.22,4.29,8.72,8.72,0,0,0,5.39,1.8l78,.27a8.73,8.73,0,0,0,5.41-1.76,5.5,5.5,0,0,0,2.26-4.28l.07-11.59c0-3-2.71-5.48-6.29-6A9.54,9.54,0,0,0,374.43,323.39Z"/><g class="cls-11"><rect class="cls-5" x="297.87" y="330.02" width="8.67" height="10.12" transform="translate(-43.61 624.93) rotate(-87.92)"/></g><g class="cls-12"><rect class="cls-10" x="294.26" y="326.9" width="16.38" height="16.38" transform="translate(-43.39 625.18) rotate(-87.92)"/></g><g class="cls-13"><rect class="cls-5" x="297.87" y="301.92" width="8.67" height="10.12" transform="translate(-15.53 597.85) rotate(-87.92)"/></g><g class="cls-14"><rect class="cls-10" x="294.26" y="298.8" width="16.38" height="16.38" transform="matrix(0.04, -1, 1, 0.04, -15.31, 598.1)"/></g><rect class="cls-15" x="309.36" y="245.96" width="51.79" height="7.28" rx="1.87" ry="1.87" transform="translate(668.11 502.39) rotate(-179.45)"/><rect class="cls-15" x="322.76" y="237.14" width="26.84" height="6.01" rx="1.55" ry="1.55" transform="translate(670.06 483.48) rotate(-179.45)"/><rect class="cls-15" x="280" y="201" width="111" height="12"/><circle class="cls-16" cx="387.85" cy="186.29" r="27.21"/><g id="hand"><rect class="cls-17" y="263.66" width="128" height="114.76"/><rect class="cls-18" x="126.41" y="263.66" width="34.43" height="114.76"/><circle class="cls-4" cx="142.62" cy="364.48" r="7.38"/><path id="hand-2" data-name="hand" class="cls-3" d="M321.6,219.5c-8.68-9.33-28.48-1.76-28.48-1.76s-55,11-78.18,25.83c-12.85,8.18-31.06,26.4-31.06,31.77L161,276.51v.7L160.84,365h15.27a13.18,13.18,0,0,1,2.52.26,5.73,5.73,0,0,1,2.28,1L270,273s.06-6.15,0-6.28a4,4,0,0,1,1.12-5c4.2-4,36-18,36-18S331.12,229.74,321.6,219.5Z"/></g><polyline class="cls-19" points="374.85 187.18 382.56 194.29 400.85 178.29"/></svg>