<svg id="Layer_1" data-name="Layer 1" xmlns="http://www.w3.org/2000/svg" xmlns:xlink="http://www.w3.org/1999/xlink" viewBox="0 0 64 88"><defs><style>.cls-1,.cls-2{fill:none;}.cls-2{clip-rule:evenodd;}.cls-3{clip-path:url(#clip-path);}.cls-4{clip-path:url(#clip-path-2);}.cls-5{clip-path:url(#clip-path-3);}.cls-6{fill:#583a32;}.cls-7{fill:#333;}.cls-8{fill:#723a2f;}.cls-9{fill:#f69120;}.cls-10{clip-path:url(#clip-path-4);}.cls-11{clip-path:url(#clip-path-5);}.cls-12{clip-path:url(#clip-path-6);}.cls-13{clip-path:url(#clip-path-7);}.cls-14{clip-path:url(#clip-path-8);}.cls-15{clip-path:url(#clip-path-9);}</style><clipPath id="clip-path"><rect class="cls-1" x="324.96" y="-624.25" width="63.12" height="37.99" rx="4.39" ry="4.39"/></clipPath><clipPath id="clip-path-2"><path class="cls-2" d="M360.09-620.29h-5.88a.79.79,0,0,1-.79-.79v-1a.79.79,0,0,1,.79-.79h5.88a.79.79,0,0,1,.79.79v1a.79.79,0,0,1-.79.79"/></clipPath><clipPath id="clip-path-3"><rect class="cls-1" x="355.44" y="-631.52" width="3.41" height="10.19"/></clipPath><clipPath id="clip-path-4"><path class="cls-2" d="M122.35,18.76V82.71a4.14,4.14,0,0,0,4.16,4.13H182.2a4.14,4.14,0,0,0,4.16-4.13V9.29a4.14,4.14,0,0,0-4.16-4.13H136.83Z"/></clipPath><clipPath id="clip-path-5"><path class="cls-2" d="M136.83,5.16v9.47a4.14,4.14,0,0,1-4.16,4.13H122.35Z"/></clipPath><clipPath id="clip-path-6"><rect class="cls-1" x="122.35" y="5.16" width="64" height="81.67"/></clipPath><clipPath id="clip-path-7"><path class="cls-2" d="M138.31,67.09l-1.39,1.29L136.5,68a.1.1,0,0,0-.14,0,.09.09,0,0,0,0,.13l.49.48a.1.1,0,0,0,.07,0l.07,0,1.46-1.35a.1.1,0,0,0,0-.14A.1.1,0,0,0,138.31,67.09Zm-3.24.75a2.33,2.33,0,1,1,2.33,2.32A2.33,2.33,0,0,1,135.08,67.84Z"/></clipPath><clipPath id="clip-path-8"><path class="cls-2" d="M816.49-1057.35c-.58,1.86,0,4.7,1.9,4.56,2.13-.16,2.54-3.67,1.7-5.48a1.92,1.92,0,0,0-1.71-1C817.25-1059.31,816.61-1057.7,816.49-1057.35Z"/></clipPath><clipPath id="clip-path-9"><path class="cls-2" d="M838.39-1058.28c-.83,1.81-.43,5.33,1.7,5.48,1.95.15,2.49-2.7,1.9-4.56-.11-.35-.75-2-1.89-2A1.92,1.92,0,0,0,838.39-1058.28Z"/></clipPath></defs><title>scg_filene</title><rect class="cls-6" x="2.47" y="41.37" width="59.05" height="26.41" rx="1.06" ry="1.06"/><rect class="cls-7" x="2.47" y="44.01" width="59.05" height="5.51"/><path class="cls-7" d="M40.51,25.22H38.39V23.78a1.45,1.45,0,0,0-1.45-1.45H27.06a1.45,1.45,0,0,0-1.45,1.45v1.44H23.5V23.58a3.36,3.36,0,0,1,3.36-3.36H37.15a3.36,3.36,0,0,1,3.36,3.36Z"/><rect class="cls-8" y="25.22" width="64" height="23.15" rx="1.06" ry="1.06"/><path class="cls-9" d="M32,25.22h0A1.79,1.79,0,0,1,33.79,27V51a0,0,0,0,1,0,0H30.22a0,0,0,0,1,0,0V27A1.79,1.79,0,0,1,32,25.22Z" transform="translate(64 76.23) rotate(180)"/></svg>