<svg role="img" aria-labelled-by="intervju-spm-03_title" id="Layer_1" data-name="Layer 1" xmlns="http://www.w3.org/2000/svg" viewBox="0 0 64 88">
	<title id="intervju-spm-03_title">Tre snakkebobler oppå hverandre</title>
	<defs>
		<style>.cls-1{fill:#cce1f7;}.cls-2{fill:#e0f5fb;}.cls-3{fill:#005b82;}.cls-4{fill:#fff;}</style>
	</defs>
	<path class="cls-1"
		  d="M60.06,63.71H47.55L43.7,68.4a.54.54,0,0,1-.75,0l-3.84-4.69H26.89a3,3,0,0,1-2.95-3V38.48a3,3,0,0,1,2.95-2.95H60.06A3,3,0,0,1,63,38.48V60.76A3,3,0,0,1,60.06,63.71Z"/>
	<path class="cls-2"
		  d="M37.11,56.14H24.6l-3.84,4.69a.56.56,0,0,1-.75,0l-3.85-4.69H3.94a3,3,0,0,1-2.94-3V30.9A3,3,0,0,1,3.94,28H37.11a3,3,0,0,1,3,2.95V53.18A3,3,0,0,1,37.11,56.14Z"/>
	<path class="cls-3"
		  d="M47.7,41.77H35.19l-3.84,4.69a.56.56,0,0,1-.75,0l-3.85-4.69H14.53a3,3,0,0,1-2.94-3V16.54a3,3,0,0,1,2.94-3H47.7a3,3,0,0,1,2.95,3V38.82A3,3,0,0,1,47.7,41.77Z"/>
	<circle class="cls-4" cx="31" cy="28.75" r="2.17"/>
	<circle class="cls-4" cx="39" cy="28.75" r="2.17"/>
	<circle class="cls-4" cx="23" cy="28.75" r="2.17"/>
</svg>
