<svg id="Layer_1" data-name="Layer 1" xmlns="http://www.w3.org/2000/svg" xmlns:xlink="http://www.w3.org/1999/xlink" viewBox="0 0 64 88"><defs><style>.cls-1,.cls-2,.cls-35,.cls-36{fill:none;}.cls-2{clip-rule:evenodd;}.cls-3{clip-path:url(#clip-path);}.cls-4{clip-path:url(#clip-path-2);}.cls-5{clip-path:url(#clip-path-3);}.cls-6{clip-path:url(#clip-path-4);}.cls-7{clip-path:url(#clip-path-5);}.cls-8{clip-path:url(#clip-path-6);}.cls-9{clip-path:url(#clip-path-7);}.cls-10{clip-path:url(#clip-path-8);}.cls-11{clip-path:url(#clip-path-9);}.cls-12{clip-path:url(#clip-path-10);}.cls-13{clip-path:url(#clip-path-11);}.cls-14{isolation:isolate;}.cls-15{clip-path:url(#clip-path-12);}.cls-16{clip-path:url(#clip-path-13);}.cls-17{fill:#e57f68;}.cls-18{clip-path:url(#clip-path-14);}.cls-19{fill:#3e3832;}.cls-20{clip-path:url(#clip-path-16);}.cls-21{clip-path:url(#clip-path-17);}.cls-22{fill:#e7e5e2;}.cls-23{clip-path:url(#clip-path-18);}.cls-24{clip-path:url(#clip-path-19);}.cls-25{clip-path:url(#clip-path-20);}.cls-26{clip-path:url(#clip-path-21);}.cls-27{fill:#d8a25d;}.cls-28{clip-path:url(#clip-path-22);}.cls-29{fill:#6ab889;}.cls-30{clip-path:url(#clip-path-24);}.cls-31{clip-path:url(#clip-path-26);}.cls-32{clip-path:url(#clip-path-27);}.cls-33{fill:#635e59;}.cls-34{clip-path:url(#clip-path-28);}.cls-35{stroke:#d1bfa3;}.cls-35,.cls-36{stroke-linecap:round;stroke-miterlimit:10;stroke-width:0.59px;}.cls-36{stroke:#d19e9c;}.cls-37{clip-path:url(#clip-path-31);}.cls-38{clip-path:url(#clip-path-32);}</style><clipPath id="clip-path"><rect class="cls-1" x="202.6" y="-433.25" width="63.12" height="37.99" rx="4.39" ry="4.39"/></clipPath><clipPath id="clip-path-2"><path class="cls-2" d="M237.73-429.29h-5.88a.79.79,0,0,1-.79-.79v-1a.79.79,0,0,1,.79-.79h5.88a.79.79,0,0,1,.79.79v1a.79.79,0,0,1-.79.79"/></clipPath><clipPath id="clip-path-3"><rect class="cls-1" x="233.09" y="-440.52" width="3.41" height="10.19"/></clipPath><clipPath id="clip-path-4"><path class="cls-2" d="M9.88-145.85V-87.4a3.76,3.76,0,0,0,3.75,3.77H63.91a3.76,3.76,0,0,0,3.75-3.77v-67.11a3.76,3.76,0,0,0-3.75-3.77h-41Z"/></clipPath><clipPath id="clip-path-5"><path class="cls-2" d="M7.39-149v58.45a3.76,3.76,0,0,0,3.75,3.77H61.43a3.76,3.76,0,0,0,3.75-3.77v-67.11a3.76,3.76,0,0,0-3.75-3.77h-41Z"/></clipPath><clipPath id="clip-path-6"><path class="cls-2" d="M3.67-152.32v58.21a3.77,3.77,0,0,0,3.78,3.76H58.14a3.77,3.77,0,0,0,3.78-3.76v-66.83a3.77,3.77,0,0,0-3.78-3.76H16.84Z"/></clipPath><clipPath id="clip-path-7"><path class="cls-2" d="M16.84-164.7v8.62a3.77,3.77,0,0,1-3.78,3.76H3.67Z"/></clipPath><clipPath id="clip-path-8"><rect class="cls-1" x="3.67" y="-164.7" width="58.26" height="74.35"/></clipPath><clipPath id="clip-path-9"><path class="cls-2" d="M18.19-108.32l-1.27,1.17-.38-.38a.09.09,0,0,0-.13,0,.09.09,0,0,0,0,.12l.44.44a.09.09,0,0,0,.06,0l.06,0,1.33-1.23a.09.09,0,0,0,0-.12A.09.09,0,0,0,18.19-108.32Zm-2.95.68a2.12,2.12,0,0,1,2.12-2.11,2.12,2.12,0,0,1,2.12,2.11,2.12,2.12,0,0,1-2.12,2.11A2.12,2.12,0,0,1,15.25-107.64Z"/></clipPath><clipPath id="clip-path-10"><path class="cls-2" d="M54.78,30.66h0C54.74,16.46,44.55,5,32,5S9.22,16.46,9.22,30.66h0C9.21,42.8,3,49.73,3,49.73S9.14,57.3,32,57.3h0c22.84,0,29-7.57,29-7.57s-6.23-6.94-6.23-19.07"/></clipPath><clipPath id="clip-path-11"><rect class="cls-1" x="2.99" y="4.95" width="58.02" height="68.37"/></clipPath><clipPath id="clip-path-12"><rect class="cls-1" x="0.06" y="2.02" width="63.88" height="69.16"/></clipPath><clipPath id="clip-path-13"><rect class="cls-1" x="2.99" y="4.95" width="58.02" height="52.75"/></clipPath><clipPath id="clip-path-14"><rect class="cls-1" x="2.99" y="3.24" width="58.61" height="67.98"/></clipPath><clipPath id="clip-path-16"><path class="cls-2" d="M20.91,50.83c.87,1.4,3.32,25.92,10.67,25.92s10.67-25,10.67-26.28C31,44,20.91,50.83,20.91,50.83Z"/></clipPath><clipPath id="clip-path-17"><rect class="cls-1" x="2.99" y="4.95" width="58.02" height="82.05"/></clipPath><clipPath id="clip-path-18"><path class="cls-2" d="M42.13,50.4c5.14,2.52,13.14,9.34,13.14,15.66V87H9V66.06C9,60,16.28,53.4,21.36,50.68l-.39.25c.88,1.44,3.23,7.85,10.61,7.85S42.4,51.91,42.4,50.56Z"/></clipPath><clipPath id="clip-path-19"><rect class="cls-1" x="8.97" y="47.69" width="46.07" height="39.32"/></clipPath><clipPath id="clip-path-20"><rect class="cls-1" x="-19.86" y="26.05" width="108.42" height="86.15"/></clipPath><clipPath id="clip-path-21"><rect class="cls-1" x="8.85" y="50.08" width="46.3" height="36.92"/></clipPath><clipPath id="clip-path-22"><rect class="cls-1" x="-19.33" y="26.35" width="107.84" height="85.57"/></clipPath><clipPath id="clip-path-24"><path class="cls-2" d="M14.23,28.66s-.09.18-.21.1a.69.69,0,0,0-.35-.1,1.32,1.32,0,0,0-1.28,1.46V36a1.32,1.32,0,0,0,1.28,1.46,1.19,1.19,0,0,0,.77-.29c2,9,8.84,15.62,17.08,15.62s15.15-6.64,17.1-15.62a1.22,1.22,0,0,0,.78.29A1.4,1.4,0,0,0,50.77,36v-5.9a1.41,1.41,0,0,0-1.39-1.46c-.19,0-.34.19-.49.1-6.1-3.6-17.48-10.14-17.48-10.14l-17.19,10"/></clipPath><clipPath id="clip-path-26"><path class="cls-2" d="M26.12,32.36a1.39,1.39,0,0,1-1.22-2.08,1.5,1.5,0,0,1,1.22-.89,1.3,1.3,0,0,1,1.1.47,1.6,1.6,0,0,1-1.09,2.5"/></clipPath><clipPath id="clip-path-27"><rect class="cls-1" x="17.5" y="28.88" width="29.01" height="17.68"/></clipPath><clipPath id="clip-path-28"><path class="cls-2" d="M39.18,32.36a1.39,1.39,0,0,0,1.22-2.08,1.49,1.49,0,0,0-1.21-.89,1.3,1.3,0,0,0-1.1.47,1.6,1.6,0,0,0,1.09,2.5"/></clipPath><clipPath id="clip-path-31"><path class="cls-2" d="M694.14-866.35c-.58,1.86,0,4.7,1.9,4.56,2.13-.16,2.54-3.67,1.7-5.48a1.92,1.92,0,0,0-1.71-1C694.89-868.31,694.25-866.7,694.14-866.35Z"/></clipPath><clipPath id="clip-path-32"><path class="cls-2" d="M716-867.28c-.83,1.81-.43,5.33,1.7,5.48,1.95.15,2.49-2.7,1.9-4.56-.11-.35-.75-2-1.89-2A1.92,1.92,0,0,0,716-867.28Z"/></clipPath></defs><title>scg_filene</title><g class="cls-12"><g class="cls-13"><g class="cls-14"><g class="cls-15"><g class="cls-16"><rect class="cls-17" x="0.06" y="2.02" width="63.87" height="58.21"/></g><g class="cls-18"><g class="cls-16"><rect class="cls-19" x="0.06" y="0.31" width="64.47" height="73.84"/></g></g></g></g></g></g><g class="cls-20"><g class="cls-21"><rect class="cls-22" x="17.98" y="44.76" width="27.19" height="34.92"/></g></g><g class="cls-23"><g class="cls-24"><g class="cls-14"><g class="cls-25"><g class="cls-26"><rect class="cls-27" x="6.04" y="47.47" width="52.16" height="42.41"/></g><g class="cls-28"><g class="cls-26"><rect class="cls-29" x="-22.26" y="23.42" width="113.7" height="91.43"/></g></g></g></g></g></g><g class="cls-30"><g class="cls-21"><rect class="cls-22" x="9.45" y="15.7" width="44.26" height="40.05"/></g></g><g class="cls-31"><g class="cls-32"><rect class="cls-33" x="21.83" y="26.46" width="8.58" height="8.84"/></g></g><g class="cls-34"><g class="cls-32"><rect class="cls-33" x="34.9" y="26.46" width="8.58" height="8.84"/></g></g><g class="cls-32"><path class="cls-35" d="M33.41,34.61a2,2,0,0,1,1.81.33c.83,1,.59,2.17-.81,3a2.79,2.79,0,0,1-2.3.34"/><path class="cls-36" d="M27.65,43.09a3.2,3.2,0,0,0,2.41.71h1.77"/></g></svg>