<svg id="Layer_1" data-name="Layer 1" xmlns="http://www.w3.org/2000/svg" xmlns:xlink="http://www.w3.org/1999/xlink" viewBox="0 0 64 88"><defs><style>.cls-1,.cls-2{fill:none;}.cls-2{clip-rule:evenodd;}.cls-3{clip-path:url(#clip-path);}.cls-4{clip-path:url(#clip-path-2);}.cls-5{clip-path:url(#clip-path-3);}.cls-6{fill:#09536e;}.cls-7{fill:#bcd0cf;}.cls-8{fill:#fff;}.cls-9{opacity:0.53;}.cls-10{clip-path:url(#clip-path-4);}.cls-11{clip-path:url(#clip-path-5);}</style><clipPath id="clip-path"><rect class="cls-1" x="0.44" y="-435.75" width="63.12" height="37.99" rx="4.39" ry="4.39"/></clipPath><clipPath id="clip-path-2"><path class="cls-2" d="M35.57-431.79H29.69a.79.79,0,0,1-.79-.79v-1a.79.79,0,0,1,.79-.79h5.88a.79.79,0,0,1,.79.79v1a.79.79,0,0,1-.79.79"/></clipPath><clipPath id="clip-path-3"><rect class="cls-1" x="30.93" y="-443.02" width="3.41" height="10.19"/></clipPath><clipPath id="clip-path-4"><path class="cls-2" d="M492-868.85c-.58,1.86,0,4.7,1.9,4.56,2.13-.16,2.54-3.67,1.7-5.48a1.92,1.92,0,0,0-1.71-1C492.73-870.81,492.09-869.2,492-868.85Z"/></clipPath><clipPath id="clip-path-5"><path class="cls-2" d="M513.87-869.78c-.83,1.81-.43,5.33,1.7,5.48,1.95.15,2.49-2.7,1.9-4.56-.11-.35-.75-2-1.89-2A1.92,1.92,0,0,0,513.87-869.78Z"/></clipPath></defs><title>scg_filene</title><path class="cls-6" d="M61.24,20.51h-34a3.73,3.73,0,0,0-3.73,3.73V46.47a3.73,3.73,0,0,0,3.73,3.73h7.51a1,1,0,0,1,1,1v8.46a1,1,0,0,0,1.56.76l12.85-10a1,1,0,0,1,.59-.2h9.54A3.73,3.73,0,0,0,64,46.47V23.28a2.76,2.76,0,0,0-2.76-2.76"/><path class="cls-7" d="M2.5,35.3h29a3,3,0,0,1,3,3V54.76a3,3,0,0,1-3,3H25.36a.52.52,0,0,0-.52.52V67a.52.52,0,0,1-.87.39L13.54,57.92a.52.52,0,0,0-.35-.13H3a3,3,0,0,1-3-3v-17a2.5,2.5,0,0,1,2.5-2.5"/><circle class="cls-8" cx="10.96" cy="46.28" r="2.07"/><circle class="cls-8" cx="17.24" cy="46.28" r="2.07"/><circle class="cls-8" cx="23.52" cy="46.28" r="2.07"/><g class="cls-9"><circle class="cls-8" cx="37.89" cy="33.83" r="2.19"/><circle class="cls-8" cx="44.53" cy="33.83" r="2.19"/><circle class="cls-8" cx="51.18" cy="33.83" r="2.19"/></g></svg>