<svg role="img" aria-labelled-by="intervju-spm-02_title" id="Layer_1" data-name="Layer 1" xmlns="http://www.w3.org/2000/svg" viewBox="0 0 64 88">
	<title id="intervju-spm-02_title">Ordrebrett med papirskjema</title>
	<defs>
		<style>
			.cls-1{fill:#515658;}.cls-2{fill:#fff;}.cls-3{fill:#c0c0be;}.cls-4{fill:#2f3237;}.cls-5{fill:#a59d96;}.cls-6{fill:none;stroke:#2f3237;stroke-miterlimit:10;stroke-width:1.53px;}
		</style>
	</defs>
	<path class="cls-1"
		  d="M59,8.71H5a4,4,0,0,0-4,4V80.79A3.9,3.9,0,0,0,1.18,82a4.13,4.13,0,0,0,1,1.66l.29.26a4.07,4.07,0,0,0,2.15.9l.41,0H59a4,4,0,0,0,4-4V12.74a4,4,0,0,0-4-4"/>
	<path class="cls-2" d="M6,23.59V75.94a3.38,3.38,0,0,0,3.38,3.38H54.63A3.38,3.38,0,0,0,58,75.94V15.83a3.38,3.38,0,0,0-3.38-3.38H17.76Z"/>
	<path class="cls-3" d="M17.76,12.45v7.76a3.39,3.39,0,0,1-3.38,3.38H6Z"/>
	<path class="cls-4"
		  d="M40.05,5.28H35.2v-.9a3.2,3.2,0,0,0-6.4,0v.9H24a4.34,4.34,0,0,0-4.34,4.33v5.21H44.39V9.61a4.34,4.34,0,0,0-4.34-4.33m-8,5.33A1.31,1.31,0,1,1,33.3,9.3,1.3,1.3,0,0,1,32,10.61"/>
	<rect class="cls-5" x="23.25" y="41.15" width="25.11" height="2.81"/>
	<rect class="cls-5" x="23.25" y="47.5" width="25.11" height="2.8"/>
	<rect class="cls-5" x="23.25" y="53.85" width="25.11" height="2.8"/>
	<rect class="cls-5" x="23.25" y="60.2" width="25.11" height="2.8"/>
	<path class="cls-5" d="M19.35,41.15V44h-3V41.15h3M20.48,40H15.25v5.07h5.23V40Z"/>
	<path class="cls-5" d="M19.35,47.5v2.81h-3V47.5h3m1.13-1.13H15.25v5.07h5.23V46.37Z"/>
	<path class="cls-5" d="M19.35,53.85v2.8h-3v-2.8h3m1.13-1.13H15.25v5.06h5.23V52.72Z"/>
	<path class="cls-5" d="M19.35,60.2V63h-3V60.2h3m1.13-1.13H15.25v5.06h5.23V59.07Z"/>
	<polyline class="cls-6" points="15.33 39.75 18.11 42.93 22.01 37.88"/>
	<polyline class="cls-6" points="15.33 46.26 18.11 49.43 22.01 44.39"/>
</svg>
