<svg role="img" aria-labelled-by="intervju-spm-01_title" id="Layer_1" data-name="Layer 1" xmlns="http://www.w3.org/2000/svg" viewBox="0 0 64 88">
	<title id="intervju-spm-01_title">Snakkeboble med hjerte-ikon</title>
	<defs>
		<style>
			.cls-1{fill:#e4e3da;}.cls-2{fill:none;stroke:#8e9294;stroke-linecap:round;stroke-miterlimit:10;stroke-width:3.12px;}.cls-3{fill:#f0d7d3;}.cls-4{fill:#d74b55;}
		</style>
	</defs>
	<path class="cls-1"
		  d="M54.52,59.32H36.46L30.9,66.1a.8.8,0,0,1-1.08,0l-5.55-6.78H6.62a4.26,4.26,0,0,1-4.25-4.26V22.89a4.26,4.26,0,0,1,4.25-4.27h47.9a4.26,4.26,0,0,1,4.25,4.27V55.06A4.25,4.25,0,0,1,54.52,59.32Z"/>
	<line class="cls-2" x1="12.37" y1="32.33" x2="29.91" y2="32.33"/>
	<line class="cls-2" x1="12.37" y1="40.18" x2="48.77" y2="40.18"/>
	<line class="cls-2" x1="12.37" y1="48.04" x2="48.77" y2="48.04"/>
	<circle class="cls-3" cx="48.89" cy="54.07" r="13.7"/>
	<path class="cls-4" d="M49,51a4.07,4.07,0,0,0-3.49-1.43,3.89,3.89,0,0,0-2.78,2,4.37,4.37,0,0,0,.81,4.86L49,61.32Z"/>
	<path class="cls-4" d="M48.83,51.14a4,4,0,0,1,3.48-1.44,3.89,3.89,0,0,1,2.78,2,4.38,4.38,0,0,1-.8,4.87l-5.46,4.81Z"/>
</svg>
