<svg role="img" aria-labelled-by="intervju-spm-04_title" id="Layer_1" data-name="Layer 1" xmlns="http://www.w3.org/2000/svg" xmlns:xlink="http://www.w3.org/1999/xlink" viewBox="0 0 64 88">
	<title id="intervju-spm-04_title">Stilisert person-ikon</title>
	<defs>
		<style>
			.cls-1{fill:#e3b0a8;}.cls-2{clip-path:url(#clip-path);}.cls-3{fill:#e57f68;}.cls-4{fill:#a23b28;}.cls-5{fill:#e7e5e2;}.cls-10,.cls-11,.cls-6,.cls-9{fill:none;}.cls-6{stroke:#8e9294;stroke-miterlimit:10;stroke-width:0.97px;}.cls-10,.cls-11,.cls-6{stroke-linecap:round;}.cls-7{fill:#8e9294;}.cls-8{fill:#635e59;}.cls-10{stroke:#d1bfa3;stroke-width:0.32px;}.cls-11{stroke:#d19e9c;stroke-width:0.64px;}
		</style>
		<clipPath id="clip-path">
			<circle class="cls-1" cx="31.98" cy="40.67" r="31"/>
		</clipPath>
	</defs>
	<circle class="cls-1" cx="31.98" cy="40.67" r="31"/>
	<g class="cls-2">
		<path class="cls-3"
			  d="M46.45,38.53h0c0-9-6.47-16.26-14.46-16.26S17.5,29.55,17.5,38.53h0a18.89,18.89,0,0,1-4,12.05s3.91,4.8,18.42,4.8h0c14.51,0,18.42-4.8,18.42-4.8A18.9,18.9,0,0,1,46.45,38.53Z"/>
		<path class="cls-4" d="M36.39,50.22H27.56c-2.38,0-10.22,4.93-10.22,9.53V71.83H46.61V59.75C46.61,55.15,38.78,50.22,36.39,50.22Z"/>
		<path class="cls-5"
			  d="M44.72,36.64a1,1,0,0,0-.94-.79,1,1,0,0,0-.34.06h0C39.87,31.1,33,35.54,27.72,31a14.4,14.4,0,0,0-1.12-1.22s-5.1,4.42-6,6.12c0,0-.06.12-.14.06a.93.93,0,0,0-.34-.06,1,1,0,0,0-.94.79.85.85,0,0,0,0,.23v3.86a1,1,0,0,0,.95,1,1,1,0,0,0,.57-.18,13.39,13.39,0,0,0,6,8.72c-.81.34-2.07,1-2.07,1,.6.88,2.3,5,7.34,5s6.75-4.09,7.35-5c0,0-1.1-.6-2-1a13.42,13.42,0,0,0,5.94-8.69,1,1,0,0,0,.56.18.94.94,0,0,0,1-1V36.87A.85.85,0,0,0,44.72,36.64Z"/>
	</g>
	<path class="cls-6" d="M30.25,7.88a2,2,0,0,1,2.19-2.06,2.19,2.19,0,0,1,1.72,2.06,1.62,1.62,0,0,1-1.11,1.77s-1.66.14-1,2.24"/>
	<circle class="cls-7" cx="32.3" cy="13.26" r="0.49"/>
	<path id="Fill-13" class="cls-8" d="M27.19,38.32a1,1,0,0,1-.89-1.55,1.08,1.08,0,0,1,.89-.66,1,1,0,0,1,.8.35c.39.61.2,1.8-.8,1.86"/>
	<path id="Fill-15" class="cls-8" d="M36.75,38.32c.91,0,1.16-.92.89-1.55a1.08,1.08,0,0,0-.89-.66,1,1,0,0,0-.8.35c-.39.61-.2,1.8.8,1.86"/>
	<g id="Group-22">
		<path id="Fill-19" class="cls-9" d="M32.53,40a1.41,1.41,0,0,1,1.32.24c.61.75.44,1.61-.59,2.25a2,2,0,0,1-1.68.25"/>
		<path id="Stroke-21" class="cls-10" d="M32.53,40a1.41,1.41,0,0,1,1.32.24c.61.75.44,1.61-.59,2.25a2,2,0,0,1-1.68.25"/>
	</g>
	<path class="cls-11" d="M28.31,46.28a2.3,2.3,0,0,0,1.76.53h1.3"/>
</svg>
