<svg id="Layer_1" data-name="Layer 1" xmlns="http://www.w3.org/2000/svg" xmlns:xlink="http://www.w3.org/1999/xlink" viewBox="0 0 64 88"><defs><style>.cls-1,.cls-2,.cls-24,.cls-25{fill:none;}.cls-2{clip-rule:evenodd;}.cls-3{clip-path:url(#clip-path);}.cls-4{clip-path:url(#clip-path-2);}.cls-5{clip-path:url(#clip-path-3);}.cls-6{clip-path:url(#clip-path-4);}.cls-7{clip-path:url(#clip-path-5);}.cls-8{fill:#fff;}.cls-9{clip-path:url(#clip-path-6);}.cls-10{fill:#babbbb;}.cls-11{clip-path:url(#clip-path-8);}.cls-12{isolation:isolate;}.cls-13{clip-path:url(#clip-path-10);}.cls-14{clip-path:url(#clip-path-11);}.cls-15{clip-path:url(#clip-path-12);}.cls-16{fill:#bfbfbd;}.cls-17{clip-path:url(#clip-path-13);}.cls-18{clip-path:url(#clip-path-15);}.cls-19{fill:#9bd0b0;}.cls-20{clip-path:url(#clip-path-17);}.cls-21{clip-path:url(#clip-path-19);}.cls-22{fill:#625e58;}.cls-23{clip-path:url(#clip-path-21);}.cls-24{stroke:#d0bea2;stroke-width:0.43px;}.cls-24,.cls-25{stroke-linecap:round;stroke-miterlimit:10;}.cls-25{stroke:#cf9c9b;stroke-width:0.86px;}.cls-26{clip-path:url(#clip-path-24);}.cls-27{clip-path:url(#clip-path-26);}.cls-28{clip-path:url(#clip-path-27);}.cls-29{clip-path:url(#clip-path-28);}.cls-30{clip-path:url(#clip-path-29);}.cls-31{clip-path:url(#clip-path-30);}</style><clipPath id="clip-path"><rect class="cls-1" x="202.6" y="-626.25" width="63.12" height="37.99" rx="4.39" ry="4.39"/></clipPath><clipPath id="clip-path-2"><path class="cls-2" d="M237.73-622.29h-5.88a.79.79,0,0,1-.79-.79v-1a.79.79,0,0,1,.79-.79h5.88a.79.79,0,0,1,.79.79v1a.79.79,0,0,1-.79.79"/></clipPath><clipPath id="clip-path-3"><rect class="cls-1" x="233.09" y="-633.52" width="3.41" height="10.19"/></clipPath><clipPath id="clip-path-4"><path class="cls-2" d="M0,16.76V80.71a4.14,4.14,0,0,0,4.16,4.13H59.84A4.14,4.14,0,0,0,64,80.71V7.29a4.14,4.14,0,0,0-4.16-4.13H14.47Z"/></clipPath><clipPath id="clip-path-5"><rect class="cls-1" x="-82.24" y="-58.89" width="225.99" height="401.76"/></clipPath><clipPath id="clip-path-6"><path class="cls-2" d="M14.47,3.16v9.47a4.14,4.14,0,0,1-4.16,4.13H0Z"/></clipPath><clipPath id="clip-path-8"><rect class="cls-1" y="3.16" width="64" height="81.67"/></clipPath><clipPath id="clip-path-10"><rect class="cls-1" x="11.3" y="22.09" width="40.18" height="53.36"/></clipPath><clipPath id="clip-path-11"><rect class="cls-1" x="11.55" y="49.2" width="39.67" height="3.43"/></clipPath><clipPath id="clip-path-12"><rect class="cls-1" y="2.63" width="64.03" height="82.24"/></clipPath><clipPath id="clip-path-13"><rect class="cls-1" x="11.55" y="56.74" width="39.67" height="3.43"/></clipPath><clipPath id="clip-path-15"><rect class="cls-1" x="18.55" y="64.29" width="32.67" height="3.43"/></clipPath><clipPath id="clip-path-17"><rect class="cls-1" x="11.55" y="71.83" width="39.67" height="3.43"/></clipPath><clipPath id="clip-path-19"><path class="cls-2" d="M25.17,26.28c-1.22.09-1.57-1.7-1.2-2.87.07-.22.47-1.23,1.19-1.23a1.21,1.21,0,0,1,1.08.65c.53,1.14.27,3.35-1.07,3.45"/></clipPath><clipPath id="clip-path-21"><path class="cls-2" d="M38.83,26.28c1.22.09,1.57-1.7,1.2-2.87-.07-.22-.47-1.23-1.19-1.23a1.21,1.21,0,0,0-1.08.65c-.53,1.14-.27,3.35,1.07,3.45"/></clipPath><clipPath id="clip-path-24"><path class="cls-2" d="M16,65.09l-1.39,1.29L14.15,66A.1.1,0,0,0,14,66a.09.09,0,0,0,0,.13l.49.48a.1.1,0,0,0,.07,0l.07,0,1.46-1.35a.1.1,0,0,0,0-.14A.1.1,0,0,0,16,65.09Zm-3.24.75a2.33,2.33,0,1,1,2.33,2.32A2.33,2.33,0,0,1,12.72,65.84Z"/></clipPath><clipPath id="clip-path-26"><rect class="cls-1" x="11.3" y="62.27" width="7.53" height="6.91"/></clipPath><clipPath id="clip-path-27"><rect class="cls-1" x="11.75" y="62.56" width="6.61" height="6.56"/></clipPath><clipPath id="clip-path-28"><rect class="cls-1" x="12.55" y="62.9" width="5.02" height="5.65"/></clipPath><clipPath id="clip-path-29"><path class="cls-2" d="M694.14-1059.35c-.58,1.86,0,4.7,1.9,4.56,2.13-.16,2.54-3.67,1.7-5.48a1.92,1.92,0,0,0-1.71-1C694.89-1061.31,694.25-1059.7,694.14-1059.35Z"/></clipPath><clipPath id="clip-path-30"><path class="cls-2" d="M716-1060.28c-.83,1.81-.43,5.33,1.7,5.48,1.95.15,2.49-2.7,1.9-4.56-.11-.35-.75-2-1.89-2A1.92,1.92,0,0,0,716-1060.28Z"/></clipPath></defs><title>scg_filene</title><g class="cls-6"><g class="cls-7"><rect class="cls-8" x="-3.14" y="0.03" width="70.28" height="87.95"/></g></g><g class="cls-9"><g class="cls-7"><rect class="cls-10" x="-3.14" y="0.03" width="20.75" height="19.88"/></g></g><g class="cls-11"><g class="cls-7"><g class="cls-12"><g class="cls-13"><g class="cls-14"><g class="cls-15"><rect class="cls-16" x="8.42" y="46.06" width="45.94" height="9.7"/></g></g><g class="cls-17"><g class="cls-15"><rect class="cls-16" x="8.42" y="53.61" width="45.94" height="9.7"/></g></g><g class="cls-18"><g class="cls-15"><rect class="cls-19" x="15.42" y="61.15" width="38.94" height="9.7"/></g></g><g class="cls-20"><g class="cls-15"><rect class="cls-16" x="8.42" y="68.7" width="45.94" height="9.7"/></g></g><g class="cls-21"><g class="cls-15"><rect class="cls-22" x="20.69" y="19.05" width="8.94" height="10.38"/></g></g><g class="cls-23"><g class="cls-15"><rect class="cls-22" x="34.37" y="19.05" width="8.94" height="10.38"/></g></g><g class="cls-15"><path class="cls-24" d="M32.32,27.93a2,2,0,0,1,1.78.32c.82,1,.58,2.15-.79,3a2.73,2.73,0,0,1-2.26.34"/><path class="cls-25" d="M37.6,34.63A6.18,6.18,0,0,1,31.75,38a6.84,6.84,0,0,1-5.91-3.39"/></g></g></g></g></g><g class="cls-26"><g class="cls-7"><g class="cls-12"><g class="cls-27"><g class="cls-28"><g class="cls-29"><rect class="cls-19" x="8.61" y="59.42" width="12.89" height="12.84"/></g></g></g></g></g></g></svg>