<svg role="img" aria-labelled-by="intervju-spm-05_title" id="Layer_1" data-name="Layer 1" xmlns="http://www.w3.org/2000/svg" viewBox="0 0 64 88">
	<title id="intervju-spm-05_title">Tommel opp</title>
	<defs>
		<style>.cls-1{fill:#e0f5fb;}.cls-2{fill:#cce1f7;}.cls-3{fill:#005b82;}.cls-4{fill:#fff;}.cls-5{fill:#d3d3d3;}</style>
	</defs>
	<path class="cls-1" d="M32.61,13.4A31,31,0,0,0,2,39.59H6.11V59.52H5.55A31,31,0,1,0,32.61,13.4Z"/>
	<path class="cls-2" d="M6.11,39.59H2a31.75,31.75,0,0,0-.37,4.81A30.79,30.79,0,0,0,5.55,59.52h.56Z"/>
	<rect class="cls-3" x="6.11" y="39.59" width="8.16" height="19.94"/>
	<circle class="cls-4" cx="9.86" cy="56.2" r="1.62"/>
	<path id="Shape" class="cls-5"
		  d="M54.55,47.1a3,3,0,0,0-1.61-2.63.57.57,0,0,1-.16-.38,2,2,0,0,1,.16-1,3,3,0,0,0-2-4.94l-9.51-.75L39.94,37s-2-.75-.11-2.52l4.41-4.19s5-4.79,3.06-7-5.43.27-5.43.27-3.81,2.2-6.5,3.92c-3.38,2.15-5.8,2.69-8.7,4.57s-7.14,6.07-7.14,7.31l-5.26.27V59.3H18a12.73,12.73,0,0,1,2.9,1c1.24,2.2,4.89,3,6.29,2.9,0,0,9.5-.27,12.13-.38A76.3,76.3,0,0,0,47,61.93a2.82,2.82,0,0,0,2.48-3.11v-.16a3.94,3.94,0,0,1,1.18-2.32c.16-.16.32-.26.48-.42a3,3,0,0,0,2-2.85,2.76,2.76,0,0,0-.75-1.94c0-.7.27-.91.54-1.45A2.78,2.78,0,0,0,54.55,47.1Z"/>
</svg>

