<svg id="Layer_1" data-name="Layer 1" xmlns="http://www.w3.org/2000/svg" xmlns:xlink="http://www.w3.org/1999/xlink" viewBox="0 0 64 88"><defs><style>.cls-1,.cls-2,.cls-28,.cls-29{fill:none;}.cls-2{clip-rule:evenodd;}.cls-3{clip-path:url(#clip-path);}.cls-4{clip-path:url(#clip-path-2);}.cls-5{clip-path:url(#clip-path-3);}.cls-6{clip-path:url(#clip-path-4);}.cls-7{clip-path:url(#clip-path-5);}.cls-8{fill:#99c2e8;opacity:0.5;}.cls-9{clip-path:url(#clip-path-6);}.cls-10,.cls-12{fill:#fff;}.cls-10{opacity:0.7;}.cls-11{clip-path:url(#clip-path-8);}.cls-13{clip-path:url(#clip-path-10);}.cls-14{fill:#babbbb;}.cls-15{clip-path:url(#clip-path-12);}.cls-16{isolation:isolate;}.cls-17{clip-path:url(#clip-path-14);}.cls-18{clip-path:url(#clip-path-15);}.cls-19{clip-path:url(#clip-path-16);}.cls-20{fill:#bfbfbd;}.cls-21{clip-path:url(#clip-path-17);}.cls-22{clip-path:url(#clip-path-19);}.cls-23{fill:#9bd0b0;}.cls-24{clip-path:url(#clip-path-21);}.cls-25{clip-path:url(#clip-path-23);}.cls-26{fill:#625e58;}.cls-27{clip-path:url(#clip-path-25);}.cls-28{stroke:#d0bea2;stroke-width:0.39px;}.cls-28,.cls-29{stroke-linecap:round;stroke-miterlimit:10;}.cls-29{stroke:#cf9c9b;stroke-width:0.78px;}.cls-30{clip-path:url(#clip-path-28);}.cls-31{clip-path:url(#clip-path-30);}.cls-32{clip-path:url(#clip-path-31);}.cls-33{clip-path:url(#clip-path-32);}.cls-34{clip-path:url(#clip-path-33);}.cls-35{clip-path:url(#clip-path-34);}</style><clipPath id="clip-path"><rect class="cls-1" x="198.94" y="-265.09" width="63.12" height="37.99" rx="4.39" ry="4.39"/></clipPath><clipPath id="clip-path-2"><path class="cls-2" d="M234.07-261.13h-5.88a.79.79,0,0,1-.79-.79v-1a.79.79,0,0,1,.79-.79h5.88a.79.79,0,0,1,.79.79v1a.79.79,0,0,1-.79.79"/></clipPath><clipPath id="clip-path-3"><rect class="cls-1" x="229.42" y="-272.36" width="3.41" height="10.19"/></clipPath><clipPath id="clip-path-4"><path class="cls-2" d="M6.21,22.31V80.76A3.76,3.76,0,0,0,10,84.54H60.25A3.76,3.76,0,0,0,64,80.76V13.65a3.76,3.76,0,0,0-3.75-3.77h-41Z"/></clipPath><clipPath id="clip-path-5"><rect class="cls-1" x="-74.86" y="-53.02" width="205.72" height="365.72"/></clipPath><clipPath id="clip-path-6"><path class="cls-2" d="M3.73,19.2V77.65a3.76,3.76,0,0,0,3.75,3.77H57.76a3.76,3.76,0,0,0,3.75-3.77V10.54a3.76,3.76,0,0,0-3.75-3.77h-41Z"/></clipPath><clipPath id="clip-path-8"><path class="cls-2" d="M0,15.84V74.05a3.77,3.77,0,0,0,3.78,3.76H54.47a3.77,3.77,0,0,0,3.78-3.76V7.22a3.77,3.77,0,0,0-3.78-3.76H13.18Z"/></clipPath><clipPath id="clip-path-10"><path class="cls-2" d="M13.18,3.46v8.62a3.77,3.77,0,0,1-3.78,3.76H0Z"/></clipPath><clipPath id="clip-path-12"><rect class="cls-1" y="3.46" width="58.26" height="74.35"/></clipPath><clipPath id="clip-path-14"><rect class="cls-1" x="10.29" y="20.7" width="36.57" height="48.57"/></clipPath><clipPath id="clip-path-15"><rect class="cls-1" x="10.52" y="45.37" width="36.11" height="3.12"/></clipPath><clipPath id="clip-path-16"><rect class="cls-1" y="2.98" width="58.29" height="74.86"/></clipPath><clipPath id="clip-path-17"><rect class="cls-1" x="10.52" y="52.24" width="36.11" height="3.12"/></clipPath><clipPath id="clip-path-19"><rect class="cls-1" x="16.89" y="59.11" width="29.74" height="3.12"/></clipPath><clipPath id="clip-path-21"><rect class="cls-1" x="10.52" y="65.98" width="36.11" height="3.12"/></clipPath><clipPath id="clip-path-23"><path class="cls-2" d="M22.91,24.51c-1.12.08-1.43-1.55-1.09-2.61.06-.2.43-1.12,1.08-1.12a1.1,1.1,0,0,1,1,.59c.48,1,.24,3.05-1,3.14"/></clipPath><clipPath id="clip-path-25"><path class="cls-2" d="M35.35,24.51c1.12.08,1.43-1.55,1.09-2.61-.06-.2-.43-1.12-1.08-1.12a1.1,1.1,0,0,0-1,.59c-.48,1-.24,3.05,1,3.14"/></clipPath><clipPath id="clip-path-28"><path class="cls-2" d="M14.53,59.84,13.26,61l-.38-.38a.09.09,0,0,0-.13,0,.09.09,0,0,0,0,.12l.44.44a.09.09,0,0,0,.06,0l.06,0L14.65,60a.09.09,0,0,0,0-.12A.09.09,0,0,0,14.53,59.84Zm-2.95.68a2.12,2.12,0,1,1,2.12,2.11A2.12,2.12,0,0,1,11.58,60.52Z"/></clipPath><clipPath id="clip-path-30"><rect class="cls-1" x="10.29" y="57.27" width="6.86" height="6.29"/></clipPath><clipPath id="clip-path-31"><rect class="cls-1" x="10.7" y="57.53" width="6.02" height="5.97"/></clipPath><clipPath id="clip-path-32"><rect class="cls-1" x="11.43" y="57.84" width="4.57" height="5.14"/></clipPath><clipPath id="clip-path-33"><path class="cls-2" d="M690.47-698.19c-.58,1.86,0,4.7,1.9,4.56,2.13-.16,2.54-3.67,1.7-5.48a1.92,1.92,0,0,0-1.71-1C691.23-700.14,690.59-698.54,690.47-698.19Z"/></clipPath><clipPath id="clip-path-34"><path class="cls-2" d="M712.37-699.12c-.83,1.81-.43,5.33,1.7,5.48,1.95.15,2.49-2.7,1.9-4.56-.11-.35-.75-2-1.89-2A1.92,1.92,0,0,0,712.37-699.12Z"/></clipPath></defs><title>scg_filene</title><g class="cls-6"><g class="cls-7"><rect class="cls-8" x="3.36" y="7.02" width="63.5" height="80.37"/></g></g><g class="cls-9"><g class="cls-7"><rect class="cls-10" x="0.87" y="3.91" width="63.5" height="80.37"/></g></g><g class="cls-11"><g class="cls-7"><rect class="cls-12" x="-2.86" y="0.61" width="63.97" height="80.06"/></g></g><g class="cls-13"><g class="cls-7"><rect class="cls-14" x="-2.86" y="0.61" width="18.89" height="18.09"/></g></g><g class="cls-15"><g class="cls-7"><g class="cls-16"><g class="cls-17"><g class="cls-18"><g class="cls-19"><rect class="cls-20" x="7.66" y="42.51" width="41.82" height="8.83"/></g></g><g class="cls-21"><g class="cls-19"><rect class="cls-20" x="7.66" y="49.38" width="41.82" height="8.83"/></g></g><g class="cls-22"><g class="cls-19"><rect class="cls-23" x="14.03" y="56.25" width="35.45" height="8.83"/></g></g><g class="cls-24"><g class="cls-19"><rect class="cls-20" x="7.66" y="63.12" width="41.82" height="8.83"/></g></g><g class="cls-25"><g class="cls-19"><rect class="cls-26" x="18.84" y="17.92" width="8.14" height="9.45"/></g></g><g class="cls-27"><g class="cls-19"><rect class="cls-26" x="31.28" y="17.92" width="8.14" height="9.45"/></g></g><g class="cls-19"><path class="cls-28" d="M29.42,26A1.78,1.78,0,0,1,31,26.3c.74.91.53,2-.72,2.73a2.48,2.48,0,0,1-2.05.31"/><path class="cls-29" d="M34.22,32.11a5.63,5.63,0,0,1-5.32,3.08,6.23,6.23,0,0,1-5.38-3.08"/></g></g></g></g></g><g class="cls-30"><g class="cls-7"><g class="cls-16"><g class="cls-31"><g class="cls-32"><g class="cls-33"><rect class="cls-23" x="7.84" y="54.67" width="11.73" height="11.69"/></g></g></g></g></g></g></svg>