<svg role="img" aria-labelled-by="soke-spm-02_title" id="Layer_1" data-name="Layer 1" xmlns="http://www.w3.org/2000/svg" xmlns:xlink="http://www.w3.org/1999/xlink"
	 viewBox="0 0 64 88">
	<title id="soke-spm-02_title">Mobiltelefon viser person-ikon</title>
	<defs>
		<style>
			.cls-1{fill:#fff;}.cls-2{fill:#627382;}.cls-3{fill:#e7e9e9;}.cls-4{fill:#9bd0b0;}.cls-5{clip-path:url(#clip-path);}.cls-6{fill:#e57f68;}.cls-7{fill:#5d4479;}.cls-8{fill:#e7e5e2;}.cls-9{fill:#635e59;}.cls-10,.cls-11,.cls-12{fill:none;}.cls-11{stroke:#d1bfa3;stroke-width:0.1px;}.cls-11,.cls-12{stroke-linecap:round;}.cls-12{stroke:#d19e9c;stroke-width:0.2px;}.cls-13{fill:#8e9294;}
		</style>
		<clipPath id="clip-path">
			<circle class="cls-1" cx="40.26" cy="36.33" r="11.65"/>
		</clipPath>
	</defs>
	<rect class="cls-2" x="6.47" y="2.33" width="47.85" height="83.55" rx="4.42" ry="4.42"/>
	<rect class="cls-1" x="10.15" y="11.9" width="40.86" height="61.84"/>
	<rect class="cls-3" x="10.15" y="11.9" width="40.86" height="4.42"/>
	<path class="cls-4"
		  d="M58.62,51H45.25l-4.11,5a.59.59,0,0,1-.8,0l-4.11-5H23.17A3.16,3.16,0,0,1,20,47.86V24.05a3.15,3.15,0,0,1,3.14-3.15H58.62a3.15,3.15,0,0,1,3.14,3.15V47.86A3.16,3.16,0,0,1,58.62,51Z"/>
	<circle class="cls-1" cx="40.26" cy="36.33" r="11.65"/>
	<g class="cls-5">
		<path class="cls-6"
			  d="M45.7,35.53h0c0-3.38-2.43-6.11-5.44-6.11s-5.43,2.73-5.43,6.11h0a7.11,7.11,0,0,1-1.49,4.53s1.47,1.8,6.92,1.8h0c5.45,0,6.91-1.8,6.91-1.8A7.14,7.14,0,0,1,45.7,35.53Z"/>
		<path class="cls-7" d="M41.92,39.92H38.6c-.89,0-3.84,1.85-3.84,3.58V48h11V43.5C45.76,41.77,42.81,39.92,41.92,39.92Z"/>
		<path class="cls-8"
			  d="M45.05,34.81a.36.36,0,0,0-.35-.29l-.13,0h0c-1.33-1.8-3.91-.14-5.89-1.86a5.45,5.45,0,0,0-.42-.46A15.45,15.45,0,0,0,36,34.52s0,0,0,0l-.13,0a.36.36,0,0,0-.35.29.28.28,0,0,0,0,.09v1.45a.36.36,0,0,0,.36.36.38.38,0,0,0,.21-.07,5,5,0,0,0,2.25,3.28c-.31.13-.78.38-.78.38a3,3,0,0,0,5.52,0s-.41-.23-.76-.39a5,5,0,0,0,2.23-3.27.38.38,0,0,0,.21.07.36.36,0,0,0,.36-.36V34.9A.28.28,0,0,0,45.05,34.81Z"/>
		<path id="Fill-13" class="cls-9" d="M38.58,35.59c-.3,0-.39-.43-.29-.72,0-.06.11-.31.29-.31a.31.31,0,0,1,.27.16c.13.29.07.84-.27.87"/>
		<path id="Fill-15" class="cls-9" d="M42,35.59c.31,0,.39-.43.3-.72,0-.06-.12-.31-.3-.31a.32.32,0,0,0-.27.16c-.13.29-.06.84.27.87"/>
		<path id="Fill-19" class="cls-10" d="M40.36,36a.51.51,0,0,1,.45.08c.2.25.14.54-.2.75a.64.64,0,0,1-.56.08"/>
		<path id="Stroke-21" class="cls-11" d="M40.36,36a.51.51,0,0,1,.45.08c.2.25.14.54-.2.75a.64.64,0,0,1-.56.08"/>
		<path class="cls-12" d="M41.67,37.68a1.53,1.53,0,0,1-1.45.85,1.71,1.71,0,0,1-1.47-.85"/>
	</g>
	<circle class="cls-13" cx="44.19" cy="64.83" r="1.49"/>
	<circle class="cls-13" cx="38.97" cy="64.83" r="1.49"/>
	<circle class="cls-13" cx="33.88" cy="64.83" r="1.49"/>
</svg>
