<svg role="img" aria-labelled-by="soke-spm-03_title" id="Layer_1" data-name="Layer 1" xmlns="http://www.w3.org/2000/svg" viewBox="0 0 64 88">
	<title id="soke-spm-03_title">Papirdokument med OK-hake</title>
	<defs>
		<style>
			.cls-1{fill:#e4e3da;}.cls-2{fill:#babbbb;}.cls-3{fill:#9bd0b0;}.cls-4,.cls-5,.cls-6{fill:none;stroke-linecap:round;}.cls-4{stroke:#3e3832;stroke-linejoin:round;stroke-width:0.98px;}.cls-5,.cls-6{stroke:#8e9294;stroke-miterlimit:10;}.cls-5{stroke-width:2.95px;}.cls-6{stroke-width:3.11px;}
		</style>
	</defs>
	<path class="cls-1" d="M1,19.7V81.11a4,4,0,0,0,4,4H58.05a4,4,0,0,0,4-4V10.6a4,4,0,0,0-4-4H14.8Z"/>
	<path class="cls-2" d="M14.8,6.64v9.09a4,4,0,0,1-4,4H1Z"/>
	<circle class="cls-3" cx="52.94" cy="12.99" r="10.06"/>
	<polyline class="cls-4" points="48.88 12.79 51.59 15.29 58.01 9.67"/>
	<line class="cls-5" x1="14.41" y1="31.1" x2="31.02" y2="31.1"/>
	<line class="cls-5" x1="14.41" y1="38.54" x2="48.88" y2="38.54"/>
	<line class="cls-5" x1="14.41" y1="45.97" x2="48.88" y2="45.97"/>
	<line class="cls-6" x1="14.41" y1="53.4" x2="48.88" y2="53.4"/>
	<line class="cls-6" x1="14.41" y1="60.31" x2="48.88" y2="60.31"/>
	<line class="cls-6" x1="14.27" y1="67.76" x2="48.74" y2="67.76"/>
</svg>
