<svg id="Layer_1" data-name="Layer 1" xmlns="http://www.w3.org/2000/svg" xmlns:xlink="http://www.w3.org/1999/xlink" viewBox="0 0 64 88"><defs><style>.cls-1,.cls-2{fill:none;}.cls-2{clip-rule:evenodd;}.cls-3{clip-path:url(#clip-path);}.cls-4{clip-path:url(#clip-path-2);}.cls-5{clip-path:url(#clip-path-3);}.cls-6{clip-path:url(#clip-path-4);}.cls-7{clip-path:url(#clip-path-5);}.cls-8{clip-path:url(#clip-path-6);}.cls-9{clip-path:url(#clip-path-7);}.cls-10{clip-path:url(#clip-path-8);}.cls-11{clip-path:url(#clip-path-9);}.cls-12{fill:#e4e3da;}.cls-13{fill:#babbbb;}.cls-14{fill:#8e9294;}.cls-15{fill:#c42b34;}.cls-16{fill:#e1cfb4;}.cls-17{fill:#e8c163;}.cls-18{fill:#d9b15b;}.cls-19{fill:#535756;}.cls-20{clip-path:url(#clip-path-10);}.cls-21{clip-path:url(#clip-path-11);}</style><clipPath id="clip-path"><rect class="cls-1" x="320.46" y="-433.25" width="63.12" height="37.99" rx="4.39" ry="4.39"/></clipPath><clipPath id="clip-path-2"><path class="cls-2" d="M355.59-429.29h-5.88a.79.79,0,0,1-.79-.79v-1a.79.79,0,0,1,.79-.79h5.88a.79.79,0,0,1,.79.79v1a.79.79,0,0,1-.79.79"/></clipPath><clipPath id="clip-path-3"><rect class="cls-1" x="350.94" y="-440.52" width="3.41" height="10.19"/></clipPath><clipPath id="clip-path-4"><path class="cls-2" d="M127.73-145.85V-87.4a3.76,3.76,0,0,0,3.75,3.77h50.28a3.76,3.76,0,0,0,3.75-3.77v-67.11a3.76,3.76,0,0,0-3.75-3.77h-41Z"/></clipPath><clipPath id="clip-path-5"><path class="cls-2" d="M125.25-149v58.45A3.76,3.76,0,0,0,129-86.74h50.28A3.76,3.76,0,0,0,183-90.51v-67.11a3.76,3.76,0,0,0-3.75-3.77h-41Z"/></clipPath><clipPath id="clip-path-6"><path class="cls-2" d="M121.52-152.32v58.21a3.77,3.77,0,0,0,3.78,3.76H176a3.77,3.77,0,0,0,3.78-3.76v-66.83A3.77,3.77,0,0,0,176-164.7H134.7Z"/></clipPath><clipPath id="clip-path-7"><path class="cls-2" d="M134.7-164.7v8.62a3.77,3.77,0,0,1-3.78,3.76h-9.39Z"/></clipPath><clipPath id="clip-path-8"><rect class="cls-1" x="121.52" y="-164.7" width="58.26" height="74.35"/></clipPath><clipPath id="clip-path-9"><path class="cls-2" d="M136-108.32l-1.27,1.17-.38-.38a.09.09,0,0,0-.13,0,.09.09,0,0,0,0,.12l.44.44a.09.09,0,0,0,.06,0l.06,0,1.33-1.23a.09.09,0,0,0,0-.12A.09.09,0,0,0,136-108.32Zm-2.95.68a2.12,2.12,0,0,1,2.12-2.11,2.12,2.12,0,0,1,2.12,2.11,2.12,2.12,0,0,1-2.12,2.11A2.12,2.12,0,0,1,133.1-107.64Z"/></clipPath><clipPath id="clip-path-10"><path class="cls-2" d="M812-866.35c-.58,1.86,0,4.7,1.9,4.56,2.13-.16,2.54-3.67,1.7-5.48a1.92,1.92,0,0,0-1.71-1C812.75-868.31,812.11-866.7,812-866.35Z"/></clipPath><clipPath id="clip-path-11"><path class="cls-2" d="M833.89-867.28c-.83,1.81-.43,5.33,1.7,5.48,1.95.15,2.49-2.7,1.9-4.56-.11-.35-.75-2-1.89-2A1.92,1.92,0,0,0,833.89-867.28Z"/></clipPath></defs><title>scg_filene</title><path class="cls-12" d="M4,24.89V81.36A3.64,3.64,0,0,0,7.6,85H56.41A3.64,3.64,0,0,0,60,81.36V16.53a3.64,3.64,0,0,0-3.64-3.64H16.64Z"/><path class="cls-13" d="M16.64,12.88v8.36A3.64,3.64,0,0,1,13,24.89H4Z"/><rect class="cls-14" x="14.6" y="40.73" width="34.79" height="3.03"/><rect class="cls-14" x="14.6" y="47.4" width="34.79" height="3.03"/><rect class="cls-14" x="14.6" y="54.06" width="34.67" height="3.03"/><rect class="cls-14" x="14.6" y="60.72" width="34.67" height="3.02"/><rect class="cls-14" x="14.6" y="67.38" width="34.67" height="3.03"/><rect class="cls-14" x="14.6" y="34.07" width="34.79" height="3.03"/><path class="cls-15" d="M22.33,5.13v2a2.13,2.13,0,1,1-4.25,0v-2a2.13,2.13,0,1,1,4.25,0"/><polygon class="cls-16" points="50.88 9.26 58.27 6.13 50.88 3 50.02 6.25 50.88 9.26"/><rect class="cls-17" x="21.41" y="7.17" width="28.85" height="2.09"/><rect class="cls-18" x="21.41" y="5.09" width="28.85" height="2.09"/><rect class="cls-17" x="21.41" y="3" width="28.85" height="2.09"/><path class="cls-17" d="M51.33,8.58c0-.39-.5-.66-.5-1.18a.54.54,0,0,1,0-.22h-.62V9.26h.58s.5-.29.5-.68"/><path class="cls-18" d="M50.88,7.17c.13-.34.53-.49.53-1s-.41-.7-.53-1h-.62V7.17Z"/><path class="cls-17" d="M50.88,5.09a.55.55,0,0,1,0-.22c0-.52.5-.79.5-1.18s-.5-.68-.5-.68h-.58V5.09Z"/><polygon class="cls-19" points="58.27 6.13 55.66 5.02 55.66 7.24 58.27 6.13"/><rect class="cls-19" x="20.56" y="3" width="0.85" height="6.26"/></svg>