<svg id="Layer_1" data-name="Layer 1" xmlns="http://www.w3.org/2000/svg" xmlns:xlink="http://www.w3.org/1999/xlink" viewBox="0 0 64 88"><defs><style>.cls-1,.cls-2{fill:none;}.cls-2{clip-rule:evenodd;}.cls-3{fill:#583a32;}.cls-4{fill:#333;}.cls-5{fill:#723a2f;}.cls-6{fill:#f69120;}.cls-7{clip-path:url(#clip-path);}.cls-8{clip-path:url(#clip-path-2);}.cls-9{clip-path:url(#clip-path-3);}.cls-10{clip-path:url(#clip-path-4);}.cls-11{clip-path:url(#clip-path-5);}.cls-12{clip-path:url(#clip-path-6);}.cls-13{clip-path:url(#clip-path-7);}.cls-14{clip-path:url(#clip-path-8);}.cls-15{clip-path:url(#clip-path-9);}.cls-16{clip-path:url(#clip-path-10);}.cls-17{clip-path:url(#clip-path-11);}</style><clipPath id="clip-path"><rect class="cls-1" x="96.44" y="-267.9" width="63.12" height="37.99" rx="4.39" ry="4.39"/></clipPath><clipPath id="clip-path-2"><path class="cls-2" d="M131.57-263.94h-5.88a.79.79,0,0,1-.79-.79v-1a.79.79,0,0,1,.79-.79h5.88a.79.79,0,0,1,.79.79v1a.79.79,0,0,1-.79.79"/></clipPath><clipPath id="clip-path-3"><rect class="cls-1" x="126.92" y="-275.17" width="3.41" height="10.19"/></clipPath><clipPath id="clip-path-4"><path class="cls-2" d="M-96.29,19.5V78a3.76,3.76,0,0,0,3.75,3.77h50.28A3.76,3.76,0,0,0-38.5,78V10.84a3.76,3.76,0,0,0-3.75-3.77h-41Z"/></clipPath><clipPath id="clip-path-5"><path class="cls-2" d="M-98.77,16.39V74.84A3.76,3.76,0,0,0-95,78.61h50.28A3.76,3.76,0,0,0-41,74.84V7.73A3.76,3.76,0,0,0-44.74,4h-41Z"/></clipPath><clipPath id="clip-path-6"><path class="cls-2" d="M-102.5,13V71.24A3.77,3.77,0,0,0-98.71,75H-48a3.77,3.77,0,0,0,3.78-3.76V4.41A3.77,3.77,0,0,0-48,.66h-41.3Z"/></clipPath><clipPath id="clip-path-7"><path class="cls-2" d="M-89.32.66V9.28A3.77,3.77,0,0,1-93.11,13h-9.39Z"/></clipPath><clipPath id="clip-path-8"><rect class="cls-1" x="-102.5" y="0.66" width="58.26" height="74.35"/></clipPath><clipPath id="clip-path-9"><path class="cls-2" d="M-88,57l-1.27,1.17-.38-.38a.09.09,0,0,0-.13,0,.09.09,0,0,0,0,.12l.44.44a.09.09,0,0,0,.06,0l.06,0,1.33-1.23a.09.09,0,0,0,0-.12A.09.09,0,0,0-88,57Zm-2.95.68A2.12,2.12,0,0,1-88.8,55.6a2.12,2.12,0,0,1,2.12,2.11,2.12,2.12,0,0,1-2.12,2.11A2.12,2.12,0,0,1-90.92,57.71Z"/></clipPath><clipPath id="clip-path-10"><path class="cls-2" d="M588-701c-.58,1.86,0,4.7,1.9,4.56,2.13-.16,2.54-3.67,1.7-5.48a1.92,1.92,0,0,0-1.71-1C588.73-703,588.09-701.35,588-701Z"/></clipPath><clipPath id="clip-path-11"><path class="cls-2" d="M609.87-701.93c-.83,1.81-.43,5.33,1.7,5.48,1.95.15,2.49-2.7,1.9-4.56-.11-.35-.75-2-1.89-2A1.92,1.92,0,0,0,609.87-701.93Z"/></clipPath></defs><title>scg_filene</title><rect class="cls-3" x="2.47" y="41.37" width="59.05" height="26.41" rx="1.06" ry="1.06"/><rect class="cls-4" x="2.47" y="44.01" width="59.05" height="5.51"/><path class="cls-4" d="M40.51,25.22H38.39V23.78a1.45,1.45,0,0,0-1.45-1.45H27.06a1.45,1.45,0,0,0-1.45,1.45v1.44H23.5V23.58a3.36,3.36,0,0,1,3.36-3.36H37.15a3.36,3.36,0,0,1,3.36,3.36Z"/><rect class="cls-5" y="25.22" width="64" height="23.15" rx="1.06" ry="1.06"/><path class="cls-6" d="M32,25.22h0A1.79,1.79,0,0,1,33.79,27V51a0,0,0,0,1,0,0H30.22a0,0,0,0,1,0,0V27A1.79,1.79,0,0,1,32,25.22Z" transform="translate(64 76.23) rotate(180)"/></svg>