<svg role="img" aria-labelled-by="soke-spm-04_title" id="Layer_1" data-name="Layer 1" xmlns="http://www.w3.org/2000/svg" viewBox="0 0 64 88">
	<title id="soke-spm-04_title">Dokument med blyant som skriver</title>
	<defs>
		<style>
			.cls-1{fill:#e4e4db;}.cls-2{fill:#c6c6c5;}.cls-3{fill:#9b9c9c;}.cls-4{fill:#c5232a;}.cls-5{fill:#e9d8bd;}.cls-6{fill:#eec85d;}.cls-7{fill:#e2b954;}.cls-8{fill:#5c5b5a;}
		</style>
	</defs>
	<path class="cls-1" d="M1,17.27v62.4a4,4,0,0,0,4,4H59a4,4,0,0,0,4-4V8a4,4,0,0,0-4-4H15Z"/>
	<path class="cls-2" d="M15,4v9.25a4,4,0,0,1-4,4H1Z"/>
	<rect class="cls-3" x="10.75" y="34.79" width="42.49" height="3.34"/>
	<rect class="cls-3" x="10.75" y="42.36" width="42.49" height="3.34"/>
	<rect class="cls-3" x="10.75" y="49.93" width="42.49" height="3.34"/>
	<rect class="cls-3" x="10.75" y="57.49" width="42.49" height="3.34"/>
	<rect class="cls-4" x="46.36" y="20" width="11.5" height="7.81" rx="2.15" ry="2.15" transform="translate(32.17 -29.84) rotate(45)"/>
	<polygon class="cls-5" points="30.59 37.29 25.06 50.95 38.72 45.42 35.62 40.07 30.59 37.29"/>
	<rect class="cls-6" x="29.64" y="28.38" width="21.31" height="3.83" transform="translate(-9.62 37.37) rotate(-45)"/>
	<rect class="cls-7" x="32.35" y="31.09" width="21.31" height="3.83" transform="translate(-10.74 40.08) rotate(-45)"/>
	<rect class="cls-6" x="35.06" y="33.8" width="21.31" height="3.83" transform="translate(-11.86 42.79) rotate(-45)"/>
	<path class="cls-6" d="M30.9,38.76c.51.51,1.5.2,2.18.88a1.17,1.17,0,0,1,.23.35l.81-.81-2.71-2.71-.75.75S30.38,38.25,30.9,38.76Z"/>
	<path class="cls-7" d="M33.31,40c.28.61-.06,1.33.66,2s1.44.39,2.05.66l.81-.81-2.71-2.71Z"/>
	<path class="cls-6" d="M36,42.7a1.06,1.06,0,0,1,.35.23c.68.69.37,1.68.88,2.19s1.54.24,1.54.24l.75-.75-2.71-2.72Z"/>
	<polygon class="cls-8" points="25.06 50.95 29.89 49 27.02 46.12 25.06 50.95"/>
	<rect class="cls-8" x="45.34" y="24.14" width="11.5" height="1.56" transform="translate(32.59 -28.83) rotate(45)"/>
</svg>
