<svg id="Layer_1" data-name="Layer 1" xmlns="http://www.w3.org/2000/svg" xmlns:xlink="http://www.w3.org/1999/xlink" viewBox="0 0 52 48"><defs><style>.cls-1{fill:none;}.cls-2{clip-path:url(#clip-path);}.cls-3{clip-path:url(#clip-path-2);}.cls-4{isolation:isolate;}.cls-5{clip-path:url(#clip-path-3);}.cls-6{clip-path:url(#clip-path-4);}.cls-7{fill:#3e3832;}.cls-8{fill:#0067c5;}.cls-9{fill:#969595;}</style><clipPath id="clip-path"><path class="cls-1" d="M26,8.3l8.51,7.29a1.31,1.31,0,0,0,1.65,0,.9.9,0,0,0,0-1.41l-9.33-8a1.31,1.31,0,0,0-1.65,0l-9.33,8a.9.9,0,0,0,0,1.41,1.31,1.31,0,0,0,1.65,0Z"/></clipPath><clipPath id="clip-path-2"><rect class="cls-1" x="12" y="-1.11" width="28" height="24"/></clipPath><clipPath id="clip-path-3"><rect class="cls-1" x="10" y="-1.11" width="32" height="24"/></clipPath><clipPath id="clip-path-4"><rect class="cls-1" x="15" y="4.89" width="22" height="12"/></clipPath></defs><title>Forrige_hover</title><g class="cls-2"><g class="cls-3"><g class="cls-4"><g class="cls-5"><g class="cls-6"><rect class="cls-7" x="10.5" y="0.89" width="31" height="20"/></g><g class="cls-3"><g class="cls-6"><rect class="cls-7" x="7" y="-6.11" width="38" height="34"/></g></g></g></g></g></g><path class="cls-8" d="M2.58,30.42H8.9V32H4.43v3H8.24v1.57H4.43v4.37H2.58Z"/><path class="cls-8" d="M10.06,37a3.76,3.76,0,1,1,7.47,0,3.75,3.75,0,1,1-7.47,0Zm5.59,0c0-1.58-.7-2.62-1.86-2.62S12,35.38,12,37s.69,2.61,1.84,2.61S15.65,38.54,15.65,37Z"/><path class="cls-8" d="M19.36,33h1.52L21,34.42h.06a2.67,2.67,0,0,1,2.22-1.58,2,2,0,0,1,.9.16l-.32,1.6a2.6,2.6,0,0,0-.82-.13c-.62,0-1.38.43-1.86,1.62v4.8H19.36Z"/><path class="cls-8" d="M25.33,33h1.52L27,34.42H27a2.67,2.67,0,0,1,2.22-1.58,2,2,0,0,1,.9.16l-.32,1.6a2.6,2.6,0,0,0-.82-.13c-.62,0-1.38.43-1.86,1.62v4.8H25.33Z"/><path class="cls-8" d="M31.09,30.61a1.14,1.14,0,1,1,1.14,1A1.06,1.06,0,0,1,31.09,30.61ZM31.3,33h1.84v7.86H31.3Z"/><path class="cls-8" d="M35,42.31a2,2,0,0,1,1.12-1.68v-.06a1.48,1.48,0,0,1-.7-1.31,1.89,1.89,0,0,1,.86-1.46v-.06a2.65,2.65,0,0,1-1-2.08,2.85,2.85,0,0,1,3.1-2.82,3.54,3.54,0,0,1,1.15.19h2.82v1.36H40.85a2.1,2.1,0,0,1,.45,1.33c0,1.74-1.31,2.67-3,2.67a2.89,2.89,0,0,1-1.07-.21.9.9,0,0,0-.38.75c0,.45.32.72,1.28.72h1.39c1.89,0,2.88.58,2.88,1.94,0,1.55-1.63,2.77-4.19,2.77C36.35,44.36,35,43.69,35,42.31Zm5.68-.42c0-.61-.5-.79-1.39-.79H38.18A4.16,4.16,0,0,1,37.1,41a1.32,1.32,0,0,0-.61,1c0,.7.77,1.12,2,1.12S40.64,42.57,40.64,41.9Zm-1-6.24a1.38,1.38,0,1,0-2.74,0,1.38,1.38,0,1,0,2.74,0Z"/><path class="cls-8" d="M43.3,37a3.82,3.82,0,0,1,3.62-4.13c2.13,0,3.25,1.54,3.25,3.73a4.29,4.29,0,0,1-.08.9h-5a2.25,2.25,0,0,0,2.32,2.19,3.28,3.28,0,0,0,1.82-.58l.62,1.15a5,5,0,0,1-2.69.85A3.79,3.79,0,0,1,43.3,37Zm5.27-.75c0-1.22-.53-2-1.6-2a2,2,0,0,0-1.89,2Z"/><rect class="cls-9" y="46.39" width="52" height="1"/></svg>