<svg id="Layer_1" data-name="Layer 1" xmlns="http://www.w3.org/2000/svg" xmlns:xlink="http://www.w3.org/1999/xlink" viewBox="0 0 24 24"><defs><style>.cls-1,.cls-2{fill:none;}.cls-2{clip-rule:evenodd;}.cls-3{clip-path:url(#clip-path);}.cls-4{fill:#9ccfb0;}.cls-5{clip-path:url(#clip-path-2);}.cls-6{fill:#3f3932;}</style><clipPath id="clip-path"><path class="cls-1" d="M17.34,8.87l-7.5,7a.5.5,0,0,1-.69,0l-2.5-2.5a.5.5,0,0,1,.71-.71l2.16,2.16,7.15-6.67a.5.5,0,1,1,.68.73ZM12,0A12,12,0,1,0,24,12,12,12,0,0,0,12,0Z"/></clipPath><clipPath id="clip-path-2"><path class="cls-2" d="M17.34,8.87l-7.5,7a.5.5,0,0,1-.69,0l-2.5-2.5a.5.5,0,0,1,.71-.71l2.16,2.16,7.15-6.67a.5.5,0,1,1,.68.73Z"/></clipPath></defs><title>checkmark</title><g class="cls-3"><rect class="cls-4" x="-5" y="-5" width="34" height="34"/></g><g class="cls-5"><rect class="cls-6" x="1.5" y="3" width="21" height="18"/></g></svg>