<svg id="Layer_1" data-name="Layer 1" xmlns="http://www.w3.org/2000/svg" xmlns:xlink="http://www.w3.org/1999/xlink" viewBox="0 0 64 88"><defs><style>.cls-1,.cls-2,.cls-8{fill:none;}.cls-2{clip-rule:evenodd;}.cls-3{clip-path:url(#clip-path);}.cls-4{clip-path:url(#clip-path-2);}.cls-5{clip-path:url(#clip-path-3);}.cls-6{fill:#ffda44;}.cls-7{fill:#f9e17a;}.cls-8{stroke:#3e3832;stroke-linecap:round;stroke-linejoin:round;stroke-width:1.76px;}.cls-9{clip-path:url(#clip-path-4);}.cls-10{clip-path:url(#clip-path-5);}</style><clipPath id="clip-path"><rect class="cls-1" x="0.44" y="-121.13" width="63.12" height="37.99" rx="4.39" ry="4.39"/></clipPath><clipPath id="clip-path-2"><path class="cls-2" d="M35.57-117.17H29.69a.79.79,0,0,1-.79-.79v-1a.79.79,0,0,1,.79-.79h5.88a.79.79,0,0,1,.79.79v1a.79.79,0,0,1-.79.79"/></clipPath><clipPath id="clip-path-3"><rect class="cls-1" x="30.93" y="-128.4" width="3.41" height="10.19"/></clipPath><clipPath id="clip-path-4"><path class="cls-2" d="M492-554.23c-.58,1.86,0,4.7,1.9,4.56,2.13-.16,2.54-3.67,1.7-5.48a1.92,1.92,0,0,0-1.71-1C492.73-556.19,492.09-554.59,492-554.23Z"/></clipPath><clipPath id="clip-path-5"><path class="cls-2" d="M513.87-555.16c-.83,1.81-.43,5.33,1.7,5.48,1.95.15,2.49-2.7,1.9-4.56-.11-.35-.75-2-1.89-2A1.92,1.92,0,0,0,513.87-555.16Z"/></clipPath></defs><title>scg_filene</title><path class="cls-6" d="M44.85,51l1.38,13a1.27,1.27,0,0,1-1.78,1.29L32.52,60a1.27,1.27,0,0,0-1,0L19.55,65.33A1.27,1.27,0,0,1,17.77,64l1.38-13a1.27,1.27,0,0,0-.32-1l-8.76-9.71a1.27,1.27,0,0,1,.68-2.09l12.8-2.7a1.27,1.27,0,0,0,.84-.61l6.52-11.34a1.27,1.27,0,0,1,2.19,0L39.62,35a1.27,1.27,0,0,0,.84.61l12.8,2.7a1.27,1.27,0,0,1,.68,2.09l-8.76,9.71A1.27,1.27,0,0,0,44.85,51Z"/><path class="cls-7" d="M23.51,34.65,8.94,39l9.33,11.77-.64,14.95,14.28-6L32,22Zm0,0"/><path class="cls-8" d="M44.76,50.55l1.61,15.19A.24.24,0,0,1,46,66L32.1,59.74a.24.24,0,0,0-.19,0L18,66a.24.24,0,0,1-.33-.24l1.61-15.19a.24.24,0,0,0-.06-.18L8.94,39a.24.24,0,0,1,.13-.39l15-3.15a.24.24,0,0,0,.16-.11L31.8,22.12a.24.24,0,0,1,.41,0l7.61,13.25a.24.24,0,0,0,.16.11l15,3.15a.24.24,0,0,1,.13.39L44.82,50.36A.24.24,0,0,0,44.76,50.55Z"/></svg>