<svg id="Layer_1" data-name="Layer 1" xmlns="http://www.w3.org/2000/svg" xmlns:xlink="http://www.w3.org/1999/xlink" viewBox="0 0 64 88"><defs><style>.cls-1,.cls-2,.cls-3{fill:none;}.cls-2{clip-rule:evenodd;}.cls-3{fill-rule:evenodd;}.cls-4{clip-path:url(#clip-path);}.cls-5{clip-path:url(#clip-path-2);}.cls-6{clip-path:url(#clip-path-3);}.cls-7{clip-path:url(#clip-path-4);}.cls-8{clip-path:url(#clip-path-5);}.cls-9{clip-path:url(#clip-path-6);}.cls-10{clip-path:url(#clip-path-7);}.cls-11{clip-path:url(#clip-path-8);}.cls-12{clip-path:url(#clip-path-9);}.cls-13{clip-path:url(#clip-path-10);}.cls-14{fill:#aec8c7;}.cls-15{clip-path:url(#clip-path-11);}.cls-16{clip-path:url(#clip-path-12);}.cls-17{clip-path:url(#clip-path-13);}.cls-18{clip-path:url(#clip-path-14);}.cls-19{fill:#c32b34;}.cls-20{clip-path:url(#clip-path-15);}.cls-21{clip-path:url(#clip-path-16);}.cls-22{clip-path:url(#clip-path-17);}.cls-23{clip-path:url(#clip-path-18);}.cls-24{fill:#2e3137;}.cls-25{clip-path:url(#clip-path-19);}.cls-26{clip-path:url(#clip-path-20);}.cls-27{fill:#d74b55;}.cls-28{fill:#0a5473;}.cls-29{clip-path:url(#clip-path-25);}.cls-30{clip-path:url(#clip-path-26);}</style><clipPath id="clip-path"><rect class="cls-1" x="317.65" y="-267.9" width="63.12" height="37.99" rx="4.39" ry="4.39"/></clipPath><clipPath id="clip-path-2"><path class="cls-2" d="M352.78-263.94H346.9a.79.79,0,0,1-.79-.79v-1a.79.79,0,0,1,.79-.79h5.88a.79.79,0,0,1,.79.79v1a.79.79,0,0,1-.79.79"/></clipPath><clipPath id="clip-path-3"><rect class="cls-1" x="348.14" y="-275.17" width="3.41" height="10.19"/></clipPath><clipPath id="clip-path-4"><path class="cls-2" d="M124.93,19.5V78a3.76,3.76,0,0,0,3.75,3.77H179A3.76,3.76,0,0,0,182.71,78V10.84A3.76,3.76,0,0,0,179,7.07H138Z"/></clipPath><clipPath id="clip-path-5"><path class="cls-2" d="M122.44,16.39V74.84a3.76,3.76,0,0,0,3.75,3.77h50.28a3.76,3.76,0,0,0,3.75-3.77V7.73A3.76,3.76,0,0,0,176.47,4h-41Z"/></clipPath><clipPath id="clip-path-6"><path class="cls-2" d="M118.71,13V71.24A3.77,3.77,0,0,0,122.5,75h50.69A3.77,3.77,0,0,0,177,71.24V4.41A3.77,3.77,0,0,0,173.19.66h-41.3Z"/></clipPath><clipPath id="clip-path-7"><path class="cls-2" d="M131.89.66V9.28A3.77,3.77,0,0,1,128.1,13h-9.39Z"/></clipPath><clipPath id="clip-path-8"><rect class="cls-1" x="118.71" y="0.66" width="58.26" height="74.35"/></clipPath><clipPath id="clip-path-9"><path class="cls-2" d="M133.24,57,132,58.2l-.38-.38a.09.09,0,0,0-.13,0,.09.09,0,0,0,0,.12l.44.44a.09.09,0,0,0,.06,0l.06,0,1.33-1.23a.09.09,0,0,0,0-.12A.09.09,0,0,0,133.24,57Zm-2.95.68a2.12,2.12,0,1,1,2.12,2.11A2.12,2.12,0,0,1,130.29,57.71Z"/></clipPath><clipPath id="clip-path-10"><path class="cls-2" d="M40.94,15.85A22.59,22.59,0,0,1,35.68,47,21.75,21.75,0,0,1,5,41.65,22.59,22.59,0,0,1,10.31,10.5a21.75,21.75,0,0,1,30.63,5.35"/></clipPath><clipPath id="clip-path-11"><rect class="cls-1" x="37.24" y="49.68" width="26.76" height="34.32"/></clipPath><clipPath id="clip-path-12"><rect class="cls-1" x="36.03" y="48.36" width="29.03" height="36.62"/></clipPath><clipPath id="clip-path-13"><path class="cls-2" d="M61.91,83.08A4.9,4.9,0,0,1,55,81.87L38.15,57.62a5.09,5.09,0,0,1,1.18-7,4.89,4.89,0,0,1,6.9,1.21L63.09,76.06a5.09,5.09,0,0,1-1.18,7"/></clipPath><clipPath id="clip-path-14"><rect class="cls-1" x="37.04" y="49.38" width="27.03" height="34.59"/></clipPath><clipPath id="clip-path-15"><rect class="cls-1" y="4" width="47.3" height="48.09"/></clipPath><clipPath id="clip-path-16"><rect class="cls-1" x="-4" y="0.55" width="55.05" height="54.93"/></clipPath><clipPath id="clip-path-17"><path class="cls-2" d="M37.3,47.69a23.44,23.44,0,0,1-33-5.76A24.34,24.34,0,0,1,10,8.4a23.44,23.44,0,0,1,33,5.75A24.34,24.34,0,0,1,37.3,47.69M11.9,11.14A21,21,0,0,0,7,40a20.17,20.17,0,0,0,28.38,5A21,21,0,0,0,40.27,16.1a20.17,20.17,0,0,0-28.38-5"/></clipPath><clipPath id="clip-path-18"><rect class="cls-1" y="3.6" width="48.05" height="48.83"/></clipPath><clipPath id="clip-path-19"><path class="cls-2" d="M42.23,54.77c-1.49,1.07-3.09,1.36-4.15-.15l-3.52-5.06a3.39,3.39,0,0,1,.79-4.67,3.26,3.26,0,0,1,4.6.8l3.52,5.06c1.05,1.51.25,3-1.24,4"/></clipPath><clipPath id="clip-path-20"><path class="cls-2" d="M40.12,58.31,56,81.21a1.63,1.63,0,0,0,2.3.4,1.7,1.7,0,0,0,.39-2.34L43.5,57.36a4.69,4.69,0,0,1-3.38,1"/></clipPath><clipPath id="clip-path-25"><path class="cls-2" d="M809.19-701c-.58,1.86,0,4.7,1.9,4.56,2.13-.16,2.54-3.67,1.7-5.48a1.92,1.92,0,0,0-1.71-1C809.94-703,809.3-701.35,809.19-701Z"/></clipPath><clipPath id="clip-path-26"><path class="cls-2" d="M831.08-701.93c-.83,1.81-.43,5.33,1.7,5.48,1.95.15,2.49-2.7,1.9-4.56-.11-.35-.75-2-1.89-2A1.92,1.92,0,0,0,831.08-701.93Z"/></clipPath></defs><title>scg_filene</title><g class="cls-13"><rect class="cls-14" x="-3.99" y="1.31" width="53.97" height="54.87"/></g><g class="cls-15"><g class="cls-16"><g class="cls-17"><g class="cls-18"><rect class="cls-19" x="32.23" y="44.59" width="36.77" height="44.49"/></g></g></g></g><g class="cls-20"><g class="cls-21"><g class="cls-22"><g class="cls-23"><rect class="cls-24" x="-5" y="-1.09" width="57.31" height="58.26"/></g></g></g></g><g class="cls-25"><rect class="cls-24" x="28.95" y="39.18" width="20" height="21.57"/></g><g class="cls-26"><rect class="cls-27" x="35.11" y="52.27" width="28.92" height="34.73"/></g><path class="cls-28" d="M45,25.77H27.81a.85.85,0,0,1,0-1.71H45a.85.85,0,1,1,0,1.71Z"/><path class="cls-24" d="M61.5,25.77H48.7a.85.85,0,0,1,0-1.71H61.5a.85.85,0,1,1,0,1.71Z"/><path class="cls-28" d="M45,32.62H18.61a.85.85,0,0,1,0-1.71H45a.85.85,0,1,1,0,1.71Z"/><path class="cls-24" d="M61.82,32.62H48.7a.85.85,0,0,1,0-1.71H61.82a.85.85,0,1,1,0,1.71Z"/><path class="cls-28" d="M29.24,39.93H22.38a.85.85,0,1,1,0-1.71h6.85a.85.85,0,0,1,0,1.71Z"/><path class="cls-28" d="M42.29,39.93H32.15a.85.85,0,1,1,0-1.71H42.29a.85.85,0,1,1,0,1.71Z"/><path class="cls-24" d="M53.48,39.93h-7a.85.85,0,1,1,0-1.71h7a.85.85,0,0,1,0,1.71Z"/><g class="cls-20"><g class="cls-21"><g class="cls-22"><g class="cls-23"><rect class="cls-24" x="-5" y="-1.09" width="57.31" height="58.26"/></g></g></g></g></svg>