<svg xmlns="http://www.w3.org/2000/svg" xmlns:xlink="http://www.w3.org/1999/xlink" viewBox="0 0 500.71 459.04"><defs><style>.cls-1{fill:#fff;}.cls-2{opacity:0.5;}.cls-3{fill:#0067c5;}.cls-4{mask:url(#mask);}.cls-22,.cls-5{fill:#99c2e8;}.cls-6{fill:#a26400;}.cls-7{fill:#6ab889;}.cls-8{fill:#38a161;}.cls-9{fill:#333;}.cls-10{fill:#f4be7d;}.cls-11{fill:#ffca85;}.cls-12{fill:#0762a5;}.cls-13{fill:#3e3832;}.cls-14{fill:#e7e5e2;}.cls-15{fill:#5eadc7;}.cls-16{fill:#6a98a5;}.cls-17{fill:#deded9;}.cls-18{fill:#d19e9c;}.cls-19{fill:#d1bfa3;}.cls-20{fill:#635e59;}.cls-21{fill:#d0e1f1;}.cls-22,.cls-23,.cls-25{opacity:0.4;isolation:isolate;}.cls-23{fill:#d8e7f4;}.cls-24{fill:#cce1f3;}.cls-25{fill:#a1c5e5;}</style><mask id="mask" x="375.09" y="219.57" width="33.3" height="4.76" maskUnits="userSpaceOnUse"><g id="mask-11"><polygon id="path-10" class="cls-1" points="408.38 224.33 408.38 219.57 375.09 219.57 375.09 224.33 408.38 224.33"/></g></mask></defs><title>Artboard 1</title><g id="Potte"><g id="Group-4"><g id="Page-1" class="cls-2"><g id="Group-3"><polygon id="Fill-1" class="cls-3" points="408.38 219.57 375.09 219.57 379.08 253.9 404.39 253.9 408.38 219.57"/></g><g id="Group-6"><g class="cls-4"><polygon id="Fill-4" class="cls-5" points="407.83 224.33 408.38 219.57 375.09 219.57 375.59 223.86 407.83 224.33"/></g></g></g></g></g><g id="Kvist"><g id="Page-1-2" data-name="Page-1"><g id="Stroke-9"><path class="cls-6" d="M394.62,208.77a.47.47,0,0,1-.45-.37.45.45,0,0,1,.36-.53l8.85-1.77,3.53-7.06a.46.46,0,0,1,.61-.2.45.45,0,0,1,.2.61l-3.62,7.25a.43.43,0,0,1-.32.24l-9.07,1.82Z"/></g><g id="Stroke-11"><path class="cls-6" d="M391.7,220.3l-.82-.39c0-.09,4.12-8.91,2.43-12.3a13.1,13.1,0,0,0-2.32-2.94c-2.22-2.35-5-5.27-5-11.78l-.9-8.11.9-.1.9,8.16c0,6.2,2.53,8.86,4.75,11.21a13.65,13.65,0,0,1,2.47,3.15C396,211,391.88,219.92,391.7,220.3Z"/></g></g></g><g id="Blad_V" data-name="Blad V"><path id="Fill-5" class="cls-7" d="M386.45,192.89c2.58-.42,3.89-6.53,3.63-10.88-.28-4.71-4.53-11.79-5.44-10.89-1.81,1.81-5.15,4.84-5.44,9.07-.45,6.46,4.35,13.18,7.25,12.7"/></g><g id="Blad_H" data-name="Blad H"><path id="Fill-1-2" data-name="Fill-1" class="cls-7" d="M404.08,206.47c-2.11-.9-2.43-6.89,0-11,2.6-4.37,10.54-4.94,10.16-5.34s-.49,6.8-2.11,9.54c-1.92,3.24-5.9,7.76-8.08,6.84"/></g><g id="Bok_3" data-name="Bok 3"><path class="cls-8" d="M77.81,244.31a9.46,9.46,0,0,1,1.1-3.47c-6,.2-12.69.28-12.76-.34a8.86,8.86,0,0,0-1.28,4.13,9.3,9.3,0,0,0,6.89,9.3H83.44a7.42,7.42,0,0,1-2.07-1A9.54,9.54,0,0,1,77.81,244.31Z"/><path class="cls-8" d="M68.57,237.77a1.94,1.94,0,0,1,.29-.21A1.94,1.94,0,0,0,68.57,237.77Z"/><path class="cls-8" d="M71.53,236.27l.35-.1Z"/><path class="cls-8" d="M67.44,238.75l0,0Z"/><path class="cls-8" d="M70.12,236.8h0Z"/><path class="cls-8" d="M66.34,240.14l.21-.3Z"/><path class="cls-1" d="M86.61,239.46a2.91,2.91,0,0,0-.87.13c-1.22.38-4.37,1.72-4.37,5.37s3.44,5.34,4.88,5.92a3.05,3.05,0,0,0,1.15.22l61.91-.64a2.23,2.23,0,0,1,.65.12v-11.4a3.83,3.83,0,0,1-1.3.28Zm61.57,8.38h-45v-.91h45Zm.16-3.49H135.66v-.91h12.68Z"/><path class="cls-7" d="M150,250.58a2.23,2.23,0,0,0-.65-.12l-61.91.64a3.05,3.05,0,0,1-1.15-.22c-1.44-.58-4.88-2.34-4.88-5.92s3.15-5,4.37-5.37a2.91,2.91,0,0,1,.87-.13h62.05a3.83,3.83,0,0,0,1.3-.28,1.42,1.42,0,0,0,1-1.34,1.79,1.79,0,0,0-1-1.58,2.83,2.83,0,0,0-1.43-.36c-2.7,0-25.77,0-60,0H73.4a10.72,10.72,0,0,0-1.52.27l-.35.1a9,9,0,0,0-1.4.53h0a9.36,9.36,0,0,0-1.26.76,1.94,1.94,0,0,0-.29.21,8.34,8.34,0,0,0-1.1.95l0,0a9.21,9.21,0,0,0-.89,1.09l-.21.3-.19.29s0,0,0,.07c.07.62,6.72.54,12.76.34a9.57,9.57,0,0,0,2.46,12.07,7.42,7.42,0,0,0,2.07,1l.25.09h65.62a1.74,1.74,0,0,0,1.78-1.78A1.61,1.61,0,0,0,150,250.58Z"/><rect class="cls-9" x="103.21" y="246.93" width="44.97" height="0.91"/><rect class="cls-9" x="135.66" y="243.44" width="12.67" height="0.91"/></g><g id="Bok_2" data-name="Bok 2"><path class="cls-10" d="M89.42,226.17a10.67,10.67,0,0,1,.93-3.47c-5.1.2-10.69.28-10.75-.35a10.19,10.19,0,0,0-1.07,4.14c-.17,4.24,2.24,8.15,5.8,9.3h9.82a6,6,0,0,1-1.74-1C90.09,232.8,89.16,229.15,89.42,226.17Z"/><path class="cls-1" d="M96.83,221.32a2,2,0,0,0-.73.13,5.49,5.49,0,0,0-3.69,5.37c0,3.58,2.9,5.34,4.11,5.92a2.22,2.22,0,0,0,1,.22l52.1-.64a1.56,1.56,0,0,1,.54.12V221a2.73,2.73,0,0,1-1.09.28Zm51.81,8.38H110.79v-.91h37.85Zm.13-3.49H138.11v-.91h10.66Z"/><path class="cls-11" d="M150.13,232.44a1.56,1.56,0,0,0-.54-.12l-52.1.64a2.22,2.22,0,0,1-1-.22c-1.21-.58-4.11-2.34-4.11-5.92a5.49,5.49,0,0,1,3.69-5.37,2,2,0,0,1,.73-.13H149a2.73,2.73,0,0,0,1.09-.28,1.41,1.41,0,0,0,.82-1.34,1.83,1.83,0,0,0-.82-1.58,2.07,2.07,0,0,0-1.2-.36c-.93,0-21.67,0-50.53,0H85.71a7,7,0,0,0-1.29.27l-.29.1a7.56,7.56,0,0,0-2.25,1.29l-.24.2a9.39,9.39,0,0,0-.93,1l0,0a10.64,10.64,0,0,0-.75,1.1c-.06.1-.12.2-.17.3s-.12.19-.17.29,0,0,0,.06c.06.63,5.65.55,10.75.35a10.67,10.67,0,0,0-.93,3.47c-.26,3,.67,6.63,3,8.59a6,6,0,0,0,1.74,1l.22.09h55.22a1.57,1.57,0,0,0,1.5-1.78A1.6,1.6,0,0,0,150.13,232.44Z"/><rect class="cls-9" x="110.79" y="228.79" width="37.85" height="0.91"/><rect class="cls-9" x="138.11" y="225.3" width="10.67" height="0.91"/></g><g id="Bok_1" data-name="Bok 1"><path class="cls-12" d="M86.33,208a10.49,10.49,0,0,1,1-3.47c-5.35.2-11.22.27-11.28-.35a9.74,9.74,0,0,0-1.13,4.14c-.17,4.23,2.36,8.15,6.09,9.3H91.31a6.3,6.3,0,0,1-1.83-1C87,214.66,86.06,211,86.33,208Z"/><path class="cls-1" d="M94.11,203.17a2.43,2.43,0,0,0-.76.13,5.54,5.54,0,0,0-3.87,5.38c0,3.58,3,5.34,4.31,5.92a2.4,2.4,0,0,0,1,.22l54.71-.65a2,2,0,0,1,.57.13V202.9a3.16,3.16,0,0,1-1.15.27Zm54.4,8.38H108.78v-.9h39.73Zm.15-3.49h-11.2v-.9h11.2Z"/><path class="cls-3" d="M150.09,214.3a2,2,0,0,0-.57-.13l-54.71.65a2.4,2.4,0,0,1-1-.22c-1.27-.58-4.31-2.34-4.31-5.92a5.54,5.54,0,0,1,3.87-5.38,2.43,2.43,0,0,1,.76-.13h54.83a3.16,3.16,0,0,0,1.15-.27,1.41,1.41,0,0,0,.85-1.34,1.83,1.83,0,0,0-.85-1.58,2.31,2.31,0,0,0-1.27-.36H82.44a6.73,6.73,0,0,0-1.35.27l-.31.1a8,8,0,0,0-2.36,1.28l-.25.21a8.07,8.07,0,0,0-1,1l0,0a8.77,8.77,0,0,0-.79,1.1l-.18.3c-.06.1-.12.19-.17.29s0,0,0,.06c.06.62,5.93.55,11.28.35a10.49,10.49,0,0,0-1,3.47c-.27,3,.7,6.63,3.15,8.59a6.3,6.3,0,0,0,1.83,1l.23.08h58a1.61,1.61,0,0,0,1.57-1.78A1.59,1.59,0,0,0,150.09,214.3Z"/><rect class="cls-9" x="108.78" y="210.65" width="39.74" height="0.91"/><rect class="cls-9" x="137.46" y="207.16" width="11.2" height="0.91"/></g><g id="Hår"><path class="cls-13" d="M250.89,162.25s67-1.75,89.87-22.75c-16.7-16.25-20-54.5-20-66.25s-6.43-35.75-24.67-53.5S258.56,0,250.89,0,224,2,205.71,19.75s-24.66,41.75-24.66,53.5-3.34,50-20,66.25C183.87,160.5,250.89,162.25,250.89,162.25Z"/></g><g id="Kropp"><path id="Combined-Shape" class="cls-14" d="M216.48,142.06c2.7,4.32,10.27,80.23,33,80.23s33-77.32,33-81.35C247.68,121,216.48,142.06,216.48,142.06Z"/><path class="cls-15" d="M269.57,135.49c-3.46,6.59-17,34-17,34h-2.81s-13.26-27.06-17-34.34a72.14,72.14,0,0,1-7.27-2.86c-11.31,3.3-46,29.44-46,53.67V308.32H322.82V186c0-24.23-33.83-50.71-45.59-53.67C275.4,133.35,271.51,134.71,269.57,135.49Z"/><path id="Fill-154" class="cls-16" d="M252.08,164.44H250S238.86,140,237.2,136.76c-1.56-.49-3.1-1-4.62-1.68,3.81,7.9,17,36.9,17,36.9h2.85s13.75-29.84,17.26-37a49.86,49.86,0,0,1-4.69,1.74C263.92,138.78,252.08,164.44,252.08,164.44Z"/></g><g id="Stetoskop_høre" data-name="Stetoskop høre"><g id="Group-6-2" data-name="Group-6"><path id="Fill-136" class="cls-1" d="M216.85,166.67c-9.81-17.11-4.48-27.92-1.11-30.53l4.31-1.79c-6.3,6.89-7.55,18.49,0,30.74Z"/><path id="Fill-138" class="cls-1" d="M210.64,166.85c5.13-3,7.85-4,12.14-4.55,5.4-.64,10.46,1.39,14.92,4.56a10.77,10.77,0,0,1,4.44,6.52c1.88,7.87,3.91,15.71,5.87,23.55a12.06,12.06,0,0,1-3.88,12.69,1.66,1.66,0,0,0-.48.89,5,5,0,0,1-9.94.12,5,5,0,0,1,3.17-5.62,5.12,5.12,0,0,1,4.53.46,7.09,7.09,0,0,0,2-6.89c-1.31-5.36-2.67-10.7-4-16.05-.71-2.79-1.45-5.57-2.09-8.37a5.35,5.35,0,0,0-1.94-3,17.64,17.64,0,0,0-23,.57,19.47,19.47,0,0,0-4.59,5.95,5.83,5.83,0,0,0-.42,4.17c2.05,8,4,16,6,24a7.25,7.25,0,0,0,5.09,5.38,5.14,5.14,0,0,1,4.23-2.55,5,5,0,0,1,2.59,9.45,5,5,0,0,1-6.15-1.13,2.69,2.69,0,0,0-1.53-.95c-4.5-1.22-7.61-4-8.8-8.53-2.26-8.46-4.32-17-6.42-25.46a9.05,9.05,0,0,1,.72-5.79,22.64,22.64,0,0,1,7.52-9.36"/></g></g><g id="Stetoskop_hjerte" data-name="Stetoskop hjerte"><polygon id="Fill-140" class="cls-1" points="284.6 173.28 281.67 173.28 281.67 134.85 284.6 136.38 284.6 173.28"/><path id="Fill-142" class="cls-1" d="M296.72,180.19a13.59,13.59,0,1,1-13.58-13.52,13.55,13.55,0,0,1,13.58,13.52"/><path id="Fill-144" class="cls-17" d="M293.42,180.19A10.29,10.29,0,1,1,283.13,170a10.26,10.26,0,0,1,10.29,10.24"/></g><g id="Fjes"><path id="Fill-420-Copy-2" class="cls-14" d="M195.78,73.45s-.28.57-.64.31a2.19,2.19,0,0,0-1.1-.31c-2.48,0-4,2-4,4.52V96.22c0,2.5,1.49,4.52,4,4.52a3.64,3.64,0,0,0,2.39-.89c6,27.81,27.35,48.36,52.86,48.36s46.89-20.55,52.93-48.36a3.76,3.76,0,0,0,2.43.89,4.32,4.32,0,0,0,4.27-4.52V78a4.35,4.35,0,0,0-4.3-4.52c-.58,0-1.06.59-1.53.31C284.21,62.62,249,42.39,249,42.39l-53.2,31.06"/></g><g id="Munn"><path id="Stroke-48" class="cls-18" d="M268.77,115a12.19,12.19,0,0,1-.84,1.47,18.76,18.76,0,0,1-2.84,3.41,18.09,18.09,0,0,1-13.51,4.93,20.89,20.89,0,0,1-13.39-5A19.61,19.61,0,0,1,235,116.4a13.81,13.81,0,0,1-.94-1.48,1.34,1.34,0,0,0-1.78-.6,1.3,1.3,0,0,0-.61,1.76,14.1,14.1,0,0,0,1.16,1.84,22.21,22.21,0,0,0,3.59,3.88,23.61,23.61,0,0,0,15.06,5.62,20.78,20.78,0,0,0,15.44-5.66,21.64,21.64,0,0,0,3.24-3.89,14.26,14.26,0,0,0,1-1.84,1.3,1.3,0,0,0-.69-1.73A1.33,1.33,0,0,0,268.77,115Z"/></g><g id="Nese"><path id="Stroke-46" class="cls-19" d="M253.56,95.8c2.27-.35,3.82-.13,4.38.54,2.09,2.54,1.42,5.23-2.17,7.43-1.89,1.16-4.5,1.57-5.87,1a1.34,1.34,0,0,0-1.76.67,1.31,1.31,0,0,0,.68,1.74c2.27,1,5.78.44,8.36-1.14,4.88-3,6-7.48,2.83-11.33-1.35-1.63-3.73-2-6.85-1.48a1.32,1.32,0,1,0,.4,2.6Z"/></g><g id="Øye_H" data-name="Øye H"><path id="Fill-44" class="cls-20" d="M273.88,89.35c3.86.28,4.94-5.33,3.78-9-.22-.7-1.5-3.86-3.76-3.86a3.8,3.8,0,0,0-3.4,2c-1.66,3.57-.84,10.5,3.38,10.82"/></g><g id="Øye_v" data-name="Øye v"><path id="Fill-42" class="cls-20" d="M230.79,89.35c-3.86.28-4.94-5.33-3.77-9,.22-.7,1.49-3.86,3.76-3.86a3.78,3.78,0,0,1,3.39,2c1.66,3.57.85,10.5-3.38,10.82"/></g><g id="Pult"><g id="Page-1-3" data-name="Page-1"><polygon id="Fill-1-3" data-name="Fill-1" class="cls-1" points="0 279.44 500.71 279.44 500.71 254.04 0 254.04 0 279.44"/><polygon class="cls-1" points="21.77 275.02 21.77 459.05 47.17 459.05 47.17 421.53 65.26 421.53 80.01 279.44 47.17 279.44 47.17 273.92 21.77 275.02"/><polygon class="cls-1" points="453.55 459.05 478.94 459.05 478.94 276.2 453.55 276.2 453.55 279.44 424.51 279.44 414.01 421.53 453.55 421.53 453.55 459.05"/><rect class="cls-21" x="47.17" y="279.44" width="406.38" height="142.09"/><rect class="cls-22" x="478.94" y="279.44" height="18.14"/><polygon class="cls-1" points="47.17 279.44 21.77 279.44 21.77 317.54 47.17 316.43 47.17 279.44"/><rect class="cls-23" x="21.77" y="279.44" width="25.4" height="28.1"/><polygon class="cls-1" points="453.55 279.44 453.55 298.69 478.94 297.58 478.94 279.44 453.55 279.44"/><rect class="cls-23" x="453.55" y="279.44" width="25.4" height="28.1"/><polygon class="cls-24" points="453.55 298.69 453.55 279.44 47.17 279.44 47.17 316.43 453.55 298.69"/><rect class="cls-25" x="47.17" y="279.44" width="406.38" height="38.1"/></g></g></svg>