<svg id="Layer_1" data-name="Layer 1" xmlns="http://www.w3.org/2000/svg" xmlns:xlink="http://www.w3.org/1999/xlink" viewBox="0 0 64 88"><defs><style>.cls-1,.cls-2{fill:none;}.cls-2{clip-rule:evenodd;}.cls-3{clip-path:url(#clip-path);}.cls-4{clip-path:url(#clip-path-2);}.cls-5{clip-path:url(#clip-path-3);}.cls-6{clip-path:url(#clip-path-4);}.cls-7{clip-path:url(#clip-path-5);}.cls-8{clip-path:url(#clip-path-6);}.cls-9{clip-path:url(#clip-path-7);}.cls-10{clip-path:url(#clip-path-8);}.cls-11{clip-path:url(#clip-path-9);}.cls-12{fill:#fff;}.cls-13{fill:#cde7d8;}.cls-14{fill:#627282;}.cls-15{clip-path:url(#clip-path-10);}.cls-16{clip-path:url(#clip-path-11);}.cls-17{fill:#bfbfbd;}.cls-18{clip-path:url(#clip-path-12);}.cls-19{clip-path:url(#clip-path-14);}.cls-20{clip-path:url(#clip-path-15);}.cls-21{clip-path:url(#clip-path-16);}.cls-22{clip-path:url(#clip-path-18);}.cls-23{clip-path:url(#clip-path-19);}</style><clipPath id="clip-path"><rect class="cls-1" x="96.44" y="-435.75" width="63.12" height="37.99" rx="4.39" ry="4.39"/></clipPath><clipPath id="clip-path-2"><path class="cls-2" d="M131.57-431.79h-5.88a.79.79,0,0,1-.79-.79v-1a.79.79,0,0,1,.79-.79h5.88a.79.79,0,0,1,.79.79v1a.79.79,0,0,1-.79.79"/></clipPath><clipPath id="clip-path-3"><rect class="cls-1" x="126.92" y="-443.02" width="3.41" height="10.19"/></clipPath><clipPath id="clip-path-4"><path class="cls-2" d="M-96.29-148.35V-89.9a3.76,3.76,0,0,0,3.75,3.77h50.28A3.76,3.76,0,0,0-38.5-89.9V-157a3.76,3.76,0,0,0-3.75-3.77h-41Z"/></clipPath><clipPath id="clip-path-5"><path class="cls-2" d="M-98.77-151.47V-93A3.76,3.76,0,0,0-95-89.24h50.28A3.76,3.76,0,0,0-41-93v-67.11a3.76,3.76,0,0,0-3.75-3.77h-41Z"/></clipPath><clipPath id="clip-path-6"><path class="cls-2" d="M-102.5-154.82v58.21a3.77,3.77,0,0,0,3.78,3.76H-48a3.77,3.77,0,0,0,3.78-3.76v-66.83A3.77,3.77,0,0,0-48-167.2h-41.3Z"/></clipPath><clipPath id="clip-path-7"><path class="cls-2" d="M-89.32-167.2v8.62a3.77,3.77,0,0,1-3.78,3.76h-9.39Z"/></clipPath><clipPath id="clip-path-8"><rect class="cls-1" x="-102.5" y="-167.2" width="58.26" height="74.35"/></clipPath><clipPath id="clip-path-9"><path class="cls-2" d="M-88-110.82l-1.27,1.17-.38-.38a.09.09,0,0,0-.13,0,.09.09,0,0,0,0,.12l.44.44a.09.09,0,0,0,.06,0l.06,0,1.33-1.23a.09.09,0,0,0,0-.12A.09.09,0,0,0-88-110.82Zm-2.95.68a2.12,2.12,0,0,1,2.12-2.11,2.12,2.12,0,0,1,2.12,2.11A2.12,2.12,0,0,1-88.8-108,2.12,2.12,0,0,1-90.92-110.14Z"/></clipPath><clipPath id="clip-path-10"><rect class="cls-1" x="18.14" y="54.87" width="27.39" height="3.12"/></clipPath><clipPath id="clip-path-11"><rect class="cls-1" x="10.17" y="12.48" width="44.21" height="74.86"/></clipPath><clipPath id="clip-path-12"><rect class="cls-1" x="18.14" y="61.74" width="27.39" height="3.12"/></clipPath><clipPath id="clip-path-14"><rect class="cls-1" x="18.14" y="40.51" width="27.39" height="3.12"/></clipPath><clipPath id="clip-path-15"><rect class="cls-1" x="10.17" y="-1.88" width="44.21" height="74.86"/></clipPath><clipPath id="clip-path-16"><rect class="cls-1" x="18.14" y="47.38" width="27.39" height="3.12"/></clipPath><clipPath id="clip-path-18"><path class="cls-2" d="M588-868.85c-.58,1.86,0,4.7,1.9,4.56,2.13-.16,2.54-3.67,1.7-5.48a1.92,1.92,0,0,0-1.71-1C588.73-870.81,588.09-869.2,588-868.85Z"/></clipPath><clipPath id="clip-path-19"><path class="cls-2" d="M609.87-869.78c-.83,1.81-.43,5.33,1.7,5.48,1.95.15,2.49-2.7,1.9-4.56-.11-.35-.75-2-1.89-2A1.92,1.92,0,0,0,609.87-869.78Z"/></clipPath></defs><title>scg_filene</title><rect class="cls-12" x="8.49" y="3" width="47.02" height="82" rx="5.63" ry="5.63"/><rect class="cls-13" x="12" y="12.73" width="40" height="60.39"/><ellipse class="cls-14" cx="32" cy="78.87" rx="3.41" ry="3.44"/><g class="cls-15"><g class="cls-16"><rect class="cls-17" x="15.98" y="52.01" width="31.72" height="8.83"/></g></g><g class="cls-18"><g class="cls-16"><rect class="cls-17" x="15.98" y="58.88" width="31.72" height="8.83"/></g></g><g class="cls-19"><g class="cls-20"><rect class="cls-17" x="15.98" y="37.65" width="31.72" height="8.83"/></g></g><g class="cls-21"><g class="cls-20"><rect class="cls-17" x="15.98" y="44.52" width="31.72" height="8.83"/></g></g><rect class="cls-17" x="18.14" y="25.38" width="7.5" height="7.5"/></svg>